%TF.GenerationSoftware,KiCad,Pcbnew,(5.1.12)-1*%
%TF.CreationDate,2021-12-17T12:12:49+01:00*%
%TF.ProjectId,ESP32-BOARD-V2.0,45535033-322d-4424-9f41-52442d56322e,rev?*%
%TF.SameCoordinates,Original*%
%TF.FileFunction,Legend,Top*%
%TF.FilePolarity,Positive*%
%FSLAX46Y46*%
G04 Gerber Fmt 4.6, Leading zero omitted, Abs format (unit mm)*
G04 Created by KiCad (PCBNEW (5.1.12)-1) date 2021-12-17 12:12:49*
%MOMM*%
%LPD*%
G01*
G04 APERTURE LIST*
%ADD10C,0.120000*%
%ADD11C,0.150000*%
%ADD12C,0.127000*%
%ADD13C,0.200000*%
%ADD14C,0.100000*%
%ADD15C,0.080000*%
G04 APERTURE END LIST*
D10*
%TO.C,J6*%
X96710000Y-93390000D02*
X90740000Y-93390000D01*
X90740000Y-93390000D02*
X90740000Y-101010000D01*
X90740000Y-101010000D02*
X96710000Y-101010000D01*
X96710000Y-101010000D02*
X96710000Y-93390000D01*
X96700000Y-96700000D02*
X95950000Y-96700000D01*
X95950000Y-96700000D02*
X95950000Y-97700000D01*
X95950000Y-97700000D02*
X96700000Y-97700000D01*
X96700000Y-97700000D02*
X96700000Y-96700000D01*
X96700000Y-93400000D02*
X95950000Y-93400000D01*
X95950000Y-93400000D02*
X95950000Y-95200000D01*
X95950000Y-95200000D02*
X96700000Y-95200000D01*
X96700000Y-95200000D02*
X96700000Y-93400000D01*
X96700000Y-99200000D02*
X95950000Y-99200000D01*
X95950000Y-99200000D02*
X95950000Y-101000000D01*
X95950000Y-101000000D02*
X96700000Y-101000000D01*
X96700000Y-101000000D02*
X96700000Y-99200000D01*
X94450000Y-93400000D02*
X94450000Y-94150000D01*
X94450000Y-94150000D02*
X91500000Y-94150000D01*
X91500000Y-94150000D02*
X91500000Y-97200000D01*
X94450000Y-101000000D02*
X94450000Y-100250000D01*
X94450000Y-100250000D02*
X91500000Y-100250000D01*
X91500000Y-100250000D02*
X91500000Y-97200000D01*
X97000000Y-94350000D02*
X97000000Y-93100000D01*
X97000000Y-93100000D02*
X95750000Y-93100000D01*
%TO.C,C16*%
X96590580Y-70010000D02*
X96309420Y-70010000D01*
X96590580Y-68990000D02*
X96309420Y-68990000D01*
%TO.C,U6*%
X107450000Y-98460000D02*
X109400000Y-98460000D01*
X107450000Y-98460000D02*
X105500000Y-98460000D01*
X107450000Y-88340000D02*
X109400000Y-88340000D01*
X107450000Y-88340000D02*
X104000000Y-88340000D01*
D11*
%TO.C,U1*%
X94175000Y-76350000D02*
X97175000Y-76350000D01*
X95675000Y-73050000D02*
X97175000Y-73050000D01*
D10*
%TO.C,SW2*%
X125150000Y-102600000D02*
X125050000Y-102600000D01*
X126650000Y-107000000D02*
X126650000Y-102600000D01*
X123550000Y-102600000D02*
X123550000Y-107000000D01*
X125150000Y-107000000D02*
X125050000Y-107000000D01*
%TO.C,SW1*%
X120450000Y-102600000D02*
X120350000Y-102600000D01*
X121950000Y-107000000D02*
X121950000Y-102600000D01*
X118850000Y-102600000D02*
X118850000Y-107000000D01*
X120450000Y-107000000D02*
X120350000Y-107000000D01*
%TO.C,R22*%
X124515000Y-88277064D02*
X124515000Y-87822936D01*
X125985000Y-88277064D02*
X125985000Y-87822936D01*
%TO.C,R20*%
X120585000Y-87822936D02*
X120585000Y-88277064D01*
X119115000Y-87822936D02*
X119115000Y-88277064D01*
%TO.C,Q1*%
X123710000Y-88700000D02*
X123710000Y-86800000D01*
X121390000Y-87300000D02*
X121390000Y-88700000D01*
%TO.C,J9*%
X145639000Y-105735000D02*
X151160000Y-105735000D01*
X145060000Y-99915000D02*
X145639000Y-99915000D01*
X145639000Y-99265000D02*
X145639000Y-99915000D01*
X145639000Y-99265000D02*
X151160000Y-99265000D01*
X151160000Y-99265000D02*
X151160000Y-99975000D01*
X145639000Y-105025000D02*
X145639000Y-105735000D01*
X151160000Y-105025000D02*
X151160000Y-105735000D01*
%TO.C,J2*%
X110370000Y-66680000D02*
X110370000Y-64020000D01*
X110370000Y-66680000D02*
X118050000Y-66680000D01*
X118050000Y-66680000D02*
X118050000Y-64020000D01*
X110370000Y-64020000D02*
X118050000Y-64020000D01*
X107770000Y-64020000D02*
X109100000Y-64020000D01*
X107770000Y-65350000D02*
X107770000Y-64020000D01*
%TO.C,C15*%
X113511252Y-89685000D02*
X112988748Y-89685000D01*
X113511252Y-88215000D02*
X112988748Y-88215000D01*
%TO.C,C14*%
X112959420Y-86590000D02*
X113240580Y-86590000D01*
X112959420Y-87610000D02*
X113240580Y-87610000D01*
%TO.C,C13*%
X103210000Y-91859420D02*
X103210000Y-92140580D01*
X102190000Y-91859420D02*
X102190000Y-92140580D01*
%TO.C,C12*%
X116965000Y-69761252D02*
X116965000Y-69238748D01*
X118435000Y-69761252D02*
X118435000Y-69238748D01*
%TO.C,C11*%
X116310000Y-69159420D02*
X116310000Y-69440580D01*
X115290000Y-69159420D02*
X115290000Y-69440580D01*
%TO.C,C10*%
X119090000Y-68711252D02*
X119090000Y-67288748D01*
X120910000Y-68711252D02*
X120910000Y-67288748D01*
%TO.C,C4*%
X116965000Y-73461252D02*
X116965000Y-72938748D01*
X118435000Y-73461252D02*
X118435000Y-72938748D01*
%TO.C,B2*%
X152300000Y-86750000D02*
X152300000Y-86650000D01*
X147900000Y-88250000D02*
X152300000Y-88250000D01*
X152300000Y-85150000D02*
X147900000Y-85150000D01*
X147900000Y-86750000D02*
X147900000Y-86650000D01*
%TO.C,B1*%
X152300000Y-81350000D02*
X152300000Y-81250000D01*
X147900000Y-82850000D02*
X152300000Y-82850000D01*
X152300000Y-79750000D02*
X147900000Y-79750000D01*
X147900000Y-81350000D02*
X147900000Y-81250000D01*
%TO.C,R11*%
X100372936Y-77265000D02*
X100827064Y-77265000D01*
X100372936Y-78735000D02*
X100827064Y-78735000D01*
%TO.C,R10*%
X100372936Y-75265000D02*
X100827064Y-75265000D01*
X100372936Y-76735000D02*
X100827064Y-76735000D01*
%TO.C,R6*%
X104272936Y-73215000D02*
X104727064Y-73215000D01*
X104272936Y-74685000D02*
X104727064Y-74685000D01*
%TO.C,R5*%
X104727064Y-72535000D02*
X104272936Y-72535000D01*
X104727064Y-71065000D02*
X104272936Y-71065000D01*
%TO.C,J5*%
X156770000Y-95970000D02*
X159430000Y-95970000D01*
X156770000Y-95970000D02*
X156770000Y-101110000D01*
X156770000Y-101110000D02*
X159430000Y-101110000D01*
X159430000Y-95970000D02*
X159430000Y-101110000D01*
X159430000Y-93370000D02*
X159430000Y-94700000D01*
X158100000Y-93370000D02*
X159430000Y-93370000D01*
%TO.C,J8*%
X152550000Y-70030000D02*
X152550000Y-67370000D01*
X144870000Y-70030000D02*
X152550000Y-70030000D01*
X144870000Y-67370000D02*
X152550000Y-67370000D01*
X144870000Y-70030000D02*
X144870000Y-67370000D01*
X143600000Y-70030000D02*
X142270000Y-70030000D01*
X142270000Y-70030000D02*
X142270000Y-68700000D01*
%TO.C,J4*%
X156770000Y-79670000D02*
X159430000Y-79670000D01*
X156770000Y-79670000D02*
X156770000Y-84810000D01*
X156770000Y-84810000D02*
X159430000Y-84810000D01*
X159430000Y-79670000D02*
X159430000Y-84810000D01*
X159430000Y-77070000D02*
X159430000Y-78400000D01*
X158100000Y-77070000D02*
X159430000Y-77070000D01*
%TO.C,J3*%
X156770000Y-87870000D02*
X159430000Y-87870000D01*
X156770000Y-87870000D02*
X156770000Y-93010000D01*
X156770000Y-93010000D02*
X159430000Y-93010000D01*
X159430000Y-87870000D02*
X159430000Y-93010000D01*
X159430000Y-85270000D02*
X159430000Y-86600000D01*
X158100000Y-85270000D02*
X159430000Y-85270000D01*
%TO.C,J1*%
X156770000Y-71470000D02*
X159430000Y-71470000D01*
X156770000Y-71470000D02*
X156770000Y-76610000D01*
X156770000Y-76610000D02*
X159430000Y-76610000D01*
X159430000Y-71470000D02*
X159430000Y-76610000D01*
X159430000Y-68870000D02*
X159430000Y-70200000D01*
X158100000Y-68870000D02*
X159430000Y-68870000D01*
%TO.C,R14*%
X145514564Y-82835000D02*
X145060436Y-82835000D01*
X145514564Y-81365000D02*
X145060436Y-81365000D01*
%TO.C,R12*%
X145514564Y-88235000D02*
X145060436Y-88235000D01*
X145514564Y-86765000D02*
X145060436Y-86765000D01*
%TO.C,J7*%
X152550000Y-66830000D02*
X152550000Y-64170000D01*
X144870000Y-66830000D02*
X152550000Y-66830000D01*
X144870000Y-64170000D02*
X152550000Y-64170000D01*
X144870000Y-66830000D02*
X144870000Y-64170000D01*
X143600000Y-66830000D02*
X142270000Y-66830000D01*
X142270000Y-66830000D02*
X142270000Y-65500000D01*
%TO.C,TH1*%
X130835000Y-88327064D02*
X130835000Y-87872936D01*
X129365000Y-88327064D02*
X129365000Y-87872936D01*
%TO.C,R21*%
X127065000Y-87872936D02*
X127065000Y-88327064D01*
X128535000Y-87872936D02*
X128535000Y-88327064D01*
%TO.C,R17*%
X141227064Y-95865000D02*
X140772936Y-95865000D01*
X141227064Y-97335000D02*
X140772936Y-97335000D01*
%TO.C,R16*%
X141227064Y-93765000D02*
X140772936Y-93765000D01*
X141227064Y-95235000D02*
X140772936Y-95235000D01*
%TO.C,R15*%
X141214564Y-91565000D02*
X140760436Y-91565000D01*
X141214564Y-93035000D02*
X140760436Y-93035000D01*
%TO.C,R13*%
X141227064Y-89365000D02*
X140772936Y-89365000D01*
X141227064Y-90835000D02*
X140772936Y-90835000D01*
%TO.C,R27*%
X112127064Y-99365000D02*
X111672936Y-99365000D01*
X112127064Y-100835000D02*
X111672936Y-100835000D01*
%TO.C,D9*%
X113815000Y-101060000D02*
X116500000Y-101060000D01*
X113815000Y-99140000D02*
X113815000Y-101060000D01*
X116500000Y-99140000D02*
X113815000Y-99140000D01*
%TO.C,C9*%
X107040000Y-81409420D02*
X107040000Y-81690580D01*
X108060000Y-81409420D02*
X108060000Y-81690580D01*
D12*
%TO.C,U2*%
X122150000Y-64200000D02*
X122150000Y-63900000D01*
X122150000Y-63900000D02*
X140150000Y-63900000D01*
X140150000Y-63900000D02*
X140150000Y-64200000D01*
X122150000Y-82800000D02*
X122150000Y-83100000D01*
X122150000Y-83100000D02*
X124660000Y-83100000D01*
X137640000Y-83100000D02*
X140150000Y-83100000D01*
X140150000Y-83100000D02*
X140150000Y-82800000D01*
D13*
X120600000Y-64960000D02*
G75*
G03*
X120600000Y-64960000I-100000J0D01*
G01*
D10*
%TO.C,U5*%
X128050000Y-94785000D02*
X129850000Y-94785000D01*
X129850000Y-91565000D02*
X127400000Y-91565000D01*
D13*
%TO.C,U4*%
X98915000Y-80850000D02*
G75*
G03*
X98915000Y-80850000I-100000J0D01*
G01*
D12*
X99750000Y-80395000D02*
X102850000Y-80395000D01*
X99750000Y-83805000D02*
X102850000Y-83805000D01*
D10*
%TO.C,U3*%
X120540000Y-96710000D02*
X119490000Y-96710000D01*
X121660000Y-91490000D02*
X122710000Y-91490000D01*
X120540000Y-91490000D02*
X119490000Y-91490000D01*
%TO.C,SW3*%
X114600000Y-104380000D02*
X114800000Y-104380000D01*
X111800000Y-108520000D02*
X112000000Y-108730000D01*
X113100000Y-108520000D02*
X112900000Y-108730000D01*
X111800000Y-107230000D02*
X111800000Y-108520000D01*
X112000000Y-108730000D02*
X112900000Y-108730000D01*
X113100000Y-108520000D02*
X113100000Y-107230000D01*
X110350000Y-107230000D02*
X116050000Y-107230000D01*
X111600000Y-104380000D02*
X113300000Y-104380000D01*
X109750000Y-105430000D02*
X109750000Y-106220000D01*
X116650000Y-106220000D02*
X116650000Y-105430000D01*
%TO.C,R26*%
X133965000Y-93327064D02*
X133965000Y-92872936D01*
X135435000Y-93327064D02*
X135435000Y-92872936D01*
%TO.C,R25*%
X136165000Y-93327064D02*
X136165000Y-92872936D01*
X137635000Y-93327064D02*
X137635000Y-92872936D01*
%TO.C,R24*%
X131765000Y-93327064D02*
X131765000Y-92872936D01*
X133235000Y-93327064D02*
X133235000Y-92872936D01*
%TO.C,R23*%
X98272936Y-90965000D02*
X98727064Y-90965000D01*
X98272936Y-92435000D02*
X98727064Y-92435000D01*
%TO.C,R19*%
X126635000Y-99572936D02*
X126635000Y-100027064D01*
X125165000Y-99572936D02*
X125165000Y-100027064D01*
%TO.C,R18*%
X121935000Y-99460436D02*
X121935000Y-99914564D01*
X120465000Y-99460436D02*
X120465000Y-99914564D01*
%TO.C,R9*%
X100372936Y-73165000D02*
X100827064Y-73165000D01*
X100372936Y-74635000D02*
X100827064Y-74635000D01*
%TO.C,R8*%
X141465000Y-101127064D02*
X141465000Y-100672936D01*
X142935000Y-101127064D02*
X142935000Y-100672936D01*
%TO.C,R7*%
X139265000Y-101127064D02*
X139265000Y-100672936D01*
X140735000Y-101127064D02*
X140735000Y-100672936D01*
%TO.C,R4*%
X137065000Y-101127064D02*
X137065000Y-100672936D01*
X138535000Y-101127064D02*
X138535000Y-100672936D01*
%TO.C,R3*%
X134865000Y-101127064D02*
X134865000Y-100672936D01*
X136335000Y-101127064D02*
X136335000Y-100672936D01*
%TO.C,R2*%
X98565000Y-69102064D02*
X98565000Y-68647936D01*
X100035000Y-69102064D02*
X100035000Y-68647936D01*
%TO.C,R1*%
X100665000Y-69114564D02*
X100665000Y-68660436D01*
X102135000Y-69114564D02*
X102135000Y-68660436D01*
%TO.C,Q2*%
X99100000Y-87840000D02*
X97200000Y-87840000D01*
X97700000Y-90160000D02*
X99100000Y-90160000D01*
%TO.C,L1*%
X95940000Y-82098752D02*
X95940000Y-81576248D01*
X98160000Y-82098752D02*
X98160000Y-81576248D01*
D13*
%TO.C,J10*%
X107290000Y-103550000D02*
X107290000Y-104800000D01*
X97710000Y-103550000D02*
X97710000Y-104800000D01*
X107290000Y-108800000D02*
X107290000Y-107520000D01*
X97710000Y-108800000D02*
X107290000Y-108800000D01*
X97710000Y-107520000D02*
X97710000Y-108800000D01*
D10*
%TO.C,D8*%
X92140000Y-86580000D02*
X94860000Y-86580000D01*
X94860000Y-86580000D02*
X94860000Y-81600000D01*
X92140000Y-86580000D02*
X92140000Y-81600000D01*
D12*
%TO.C,D6*%
X128000000Y-106500000D02*
X128000000Y-101500000D01*
X133000000Y-101500000D02*
X133000000Y-106500000D01*
D14*
X128120000Y-107053000D02*
G75*
G03*
X128120000Y-107053000I-200000J0D01*
G01*
D10*
%TO.C,D7*%
X143160000Y-105400000D02*
X143160000Y-102715000D01*
X143160000Y-102715000D02*
X141240000Y-102715000D01*
X141240000Y-102715000D02*
X141240000Y-105400000D01*
%TO.C,D5*%
X140960000Y-105400000D02*
X140960000Y-102715000D01*
X140960000Y-102715000D02*
X139040000Y-102715000D01*
X139040000Y-102715000D02*
X139040000Y-105400000D01*
%TO.C,D4*%
X138760000Y-105400000D02*
X138760000Y-102715000D01*
X138760000Y-102715000D02*
X136840000Y-102715000D01*
X136840000Y-102715000D02*
X136840000Y-105400000D01*
%TO.C,D3*%
X136560000Y-105400000D02*
X136560000Y-102715000D01*
X136560000Y-102715000D02*
X134640000Y-102715000D01*
X134640000Y-102715000D02*
X134640000Y-105400000D01*
%TO.C,D2*%
X98340000Y-64275000D02*
X98340000Y-66960000D01*
X98340000Y-66960000D02*
X100260000Y-66960000D01*
X100260000Y-66960000D02*
X100260000Y-64275000D01*
%TO.C,D1*%
X100440000Y-64275000D02*
X100440000Y-66960000D01*
X100440000Y-66960000D02*
X102360000Y-66960000D01*
X102360000Y-66960000D02*
X102360000Y-64275000D01*
%TO.C,C8*%
X104390000Y-83011252D02*
X104390000Y-81588748D01*
X106210000Y-83011252D02*
X106210000Y-81588748D01*
%TO.C,C7*%
X126410000Y-92759420D02*
X126410000Y-93040580D01*
X125390000Y-92759420D02*
X125390000Y-93040580D01*
%TO.C,C6*%
X98338748Y-85290000D02*
X99761252Y-85290000D01*
X98338748Y-87110000D02*
X99761252Y-87110000D01*
%TO.C,C5*%
X124610000Y-92759420D02*
X124610000Y-93040580D01*
X123590000Y-92759420D02*
X123590000Y-93040580D01*
%TO.C,C3*%
X131540580Y-99410000D02*
X131259420Y-99410000D01*
X131540580Y-98390000D02*
X131259420Y-98390000D01*
%TO.C,C2*%
X96511252Y-72235000D02*
X95988748Y-72235000D01*
X96511252Y-70765000D02*
X95988748Y-70765000D01*
%TO.C,C1*%
X91465000Y-73011252D02*
X91465000Y-72488748D01*
X92935000Y-73011252D02*
X92935000Y-72488748D01*
%TO.C,J6*%
D11*
X97252380Y-97533333D02*
X97966666Y-97533333D01*
X98109523Y-97580952D01*
X98204761Y-97676190D01*
X98252380Y-97819047D01*
X98252380Y-97914285D01*
X97252380Y-96628571D02*
X97252380Y-96819047D01*
X97300000Y-96914285D01*
X97347619Y-96961904D01*
X97490476Y-97057142D01*
X97680952Y-97104761D01*
X98061904Y-97104761D01*
X98157142Y-97057142D01*
X98204761Y-97009523D01*
X98252380Y-96914285D01*
X98252380Y-96723809D01*
X98204761Y-96628571D01*
X98157142Y-96580952D01*
X98061904Y-96533333D01*
X97823809Y-96533333D01*
X97728571Y-96580952D01*
X97680952Y-96628571D01*
X97633333Y-96723809D01*
X97633333Y-96914285D01*
X97680952Y-97009523D01*
X97728571Y-97057142D01*
X97823809Y-97104761D01*
%TO.C,C16*%
X95807142Y-71287142D02*
X95759523Y-71334761D01*
X95616666Y-71382380D01*
X95521428Y-71382380D01*
X95378571Y-71334761D01*
X95283333Y-71239523D01*
X95235714Y-71144285D01*
X95188095Y-70953809D01*
X95188095Y-70810952D01*
X95235714Y-70620476D01*
X95283333Y-70525238D01*
X95378571Y-70430000D01*
X95521428Y-70382380D01*
X95616666Y-70382380D01*
X95759523Y-70430000D01*
X95807142Y-70477619D01*
X96759523Y-71382380D02*
X96188095Y-71382380D01*
X96473809Y-71382380D02*
X96473809Y-70382380D01*
X96378571Y-70525238D01*
X96283333Y-70620476D01*
X96188095Y-70668095D01*
X97616666Y-70382380D02*
X97426190Y-70382380D01*
X97330952Y-70430000D01*
X97283333Y-70477619D01*
X97188095Y-70620476D01*
X97140476Y-70810952D01*
X97140476Y-71191904D01*
X97188095Y-71287142D01*
X97235714Y-71334761D01*
X97330952Y-71382380D01*
X97521428Y-71382380D01*
X97616666Y-71334761D01*
X97664285Y-71287142D01*
X97711904Y-71191904D01*
X97711904Y-70953809D01*
X97664285Y-70858571D01*
X97616666Y-70810952D01*
X97521428Y-70763333D01*
X97330952Y-70763333D01*
X97235714Y-70810952D01*
X97188095Y-70858571D01*
X97140476Y-70953809D01*
%TO.C,U6*%
X106688095Y-86952380D02*
X106688095Y-87761904D01*
X106735714Y-87857142D01*
X106783333Y-87904761D01*
X106878571Y-87952380D01*
X107069047Y-87952380D01*
X107164285Y-87904761D01*
X107211904Y-87857142D01*
X107259523Y-87761904D01*
X107259523Y-86952380D01*
X108164285Y-86952380D02*
X107973809Y-86952380D01*
X107878571Y-87000000D01*
X107830952Y-87047619D01*
X107735714Y-87190476D01*
X107688095Y-87380952D01*
X107688095Y-87761904D01*
X107735714Y-87857142D01*
X107783333Y-87904761D01*
X107878571Y-87952380D01*
X108069047Y-87952380D01*
X108164285Y-87904761D01*
X108211904Y-87857142D01*
X108259523Y-87761904D01*
X108259523Y-87523809D01*
X108211904Y-87428571D01*
X108164285Y-87380952D01*
X108069047Y-87333333D01*
X107878571Y-87333333D01*
X107783333Y-87380952D01*
X107735714Y-87428571D01*
X107688095Y-87523809D01*
%TO.C,U1*%
X94913095Y-71577380D02*
X94913095Y-72386904D01*
X94960714Y-72482142D01*
X95008333Y-72529761D01*
X95103571Y-72577380D01*
X95294047Y-72577380D01*
X95389285Y-72529761D01*
X95436904Y-72482142D01*
X95484523Y-72386904D01*
X95484523Y-71577380D01*
X96484523Y-72577380D02*
X95913095Y-72577380D01*
X96198809Y-72577380D02*
X96198809Y-71577380D01*
X96103571Y-71720238D01*
X96008333Y-71815476D01*
X95913095Y-71863095D01*
%TO.C,SW2*%
X123054761Y-106133333D02*
X123102380Y-105990476D01*
X123102380Y-105752380D01*
X123054761Y-105657142D01*
X123007142Y-105609523D01*
X122911904Y-105561904D01*
X122816666Y-105561904D01*
X122721428Y-105609523D01*
X122673809Y-105657142D01*
X122626190Y-105752380D01*
X122578571Y-105942857D01*
X122530952Y-106038095D01*
X122483333Y-106085714D01*
X122388095Y-106133333D01*
X122292857Y-106133333D01*
X122197619Y-106085714D01*
X122150000Y-106038095D01*
X122102380Y-105942857D01*
X122102380Y-105704761D01*
X122150000Y-105561904D01*
X122102380Y-105228571D02*
X123102380Y-104990476D01*
X122388095Y-104800000D01*
X123102380Y-104609523D01*
X122102380Y-104371428D01*
X122197619Y-104038095D02*
X122150000Y-103990476D01*
X122102380Y-103895238D01*
X122102380Y-103657142D01*
X122150000Y-103561904D01*
X122197619Y-103514285D01*
X122292857Y-103466666D01*
X122388095Y-103466666D01*
X122530952Y-103514285D01*
X123102380Y-104085714D01*
X123102380Y-103466666D01*
%TO.C,SW1*%
X118354761Y-106133333D02*
X118402380Y-105990476D01*
X118402380Y-105752380D01*
X118354761Y-105657142D01*
X118307142Y-105609523D01*
X118211904Y-105561904D01*
X118116666Y-105561904D01*
X118021428Y-105609523D01*
X117973809Y-105657142D01*
X117926190Y-105752380D01*
X117878571Y-105942857D01*
X117830952Y-106038095D01*
X117783333Y-106085714D01*
X117688095Y-106133333D01*
X117592857Y-106133333D01*
X117497619Y-106085714D01*
X117450000Y-106038095D01*
X117402380Y-105942857D01*
X117402380Y-105704761D01*
X117450000Y-105561904D01*
X117402380Y-105228571D02*
X118402380Y-104990476D01*
X117688095Y-104800000D01*
X118402380Y-104609523D01*
X117402380Y-104371428D01*
X118402380Y-103466666D02*
X118402380Y-104038095D01*
X118402380Y-103752380D02*
X117402380Y-103752380D01*
X117545238Y-103847619D01*
X117640476Y-103942857D01*
X117688095Y-104038095D01*
%TO.C,R22*%
X124052380Y-88692857D02*
X123576190Y-89026190D01*
X124052380Y-89264285D02*
X123052380Y-89264285D01*
X123052380Y-88883333D01*
X123100000Y-88788095D01*
X123147619Y-88740476D01*
X123242857Y-88692857D01*
X123385714Y-88692857D01*
X123480952Y-88740476D01*
X123528571Y-88788095D01*
X123576190Y-88883333D01*
X123576190Y-89264285D01*
X123147619Y-88311904D02*
X123100000Y-88264285D01*
X123052380Y-88169047D01*
X123052380Y-87930952D01*
X123100000Y-87835714D01*
X123147619Y-87788095D01*
X123242857Y-87740476D01*
X123338095Y-87740476D01*
X123480952Y-87788095D01*
X124052380Y-88359523D01*
X124052380Y-87740476D01*
X123147619Y-87359523D02*
X123100000Y-87311904D01*
X123052380Y-87216666D01*
X123052380Y-86978571D01*
X123100000Y-86883333D01*
X123147619Y-86835714D01*
X123242857Y-86788095D01*
X123338095Y-86788095D01*
X123480952Y-86835714D01*
X124052380Y-87407142D01*
X124052380Y-86788095D01*
%TO.C,R20*%
X121952380Y-88692857D02*
X121476190Y-89026190D01*
X121952380Y-89264285D02*
X120952380Y-89264285D01*
X120952380Y-88883333D01*
X121000000Y-88788095D01*
X121047619Y-88740476D01*
X121142857Y-88692857D01*
X121285714Y-88692857D01*
X121380952Y-88740476D01*
X121428571Y-88788095D01*
X121476190Y-88883333D01*
X121476190Y-89264285D01*
X121047619Y-88311904D02*
X121000000Y-88264285D01*
X120952380Y-88169047D01*
X120952380Y-87930952D01*
X121000000Y-87835714D01*
X121047619Y-87788095D01*
X121142857Y-87740476D01*
X121238095Y-87740476D01*
X121380952Y-87788095D01*
X121952380Y-88359523D01*
X121952380Y-87740476D01*
X120952380Y-87121428D02*
X120952380Y-87026190D01*
X121000000Y-86930952D01*
X121047619Y-86883333D01*
X121142857Y-86835714D01*
X121333333Y-86788095D01*
X121571428Y-86788095D01*
X121761904Y-86835714D01*
X121857142Y-86883333D01*
X121904761Y-86930952D01*
X121952380Y-87026190D01*
X121952380Y-87121428D01*
X121904761Y-87216666D01*
X121857142Y-87264285D01*
X121761904Y-87311904D01*
X121571428Y-87359523D01*
X121333333Y-87359523D01*
X121142857Y-87311904D01*
X121047619Y-87264285D01*
X121000000Y-87216666D01*
X120952380Y-87121428D01*
%TO.C,Q1*%
X125097619Y-88095238D02*
X125050000Y-88190476D01*
X124954761Y-88285714D01*
X124811904Y-88428571D01*
X124764285Y-88523809D01*
X124764285Y-88619047D01*
X125002380Y-88571428D02*
X124954761Y-88666666D01*
X124859523Y-88761904D01*
X124669047Y-88809523D01*
X124335714Y-88809523D01*
X124145238Y-88761904D01*
X124050000Y-88666666D01*
X124002380Y-88571428D01*
X124002380Y-88380952D01*
X124050000Y-88285714D01*
X124145238Y-88190476D01*
X124335714Y-88142857D01*
X124669047Y-88142857D01*
X124859523Y-88190476D01*
X124954761Y-88285714D01*
X125002380Y-88380952D01*
X125002380Y-88571428D01*
X125002380Y-87190476D02*
X125002380Y-87761904D01*
X125002380Y-87476190D02*
X124002380Y-87476190D01*
X124145238Y-87571428D01*
X124240476Y-87666666D01*
X124288095Y-87761904D01*
%TO.C,J9*%
X148066666Y-97717380D02*
X148066666Y-98431666D01*
X148019047Y-98574523D01*
X147923809Y-98669761D01*
X147780952Y-98717380D01*
X147685714Y-98717380D01*
X148590476Y-98717380D02*
X148780952Y-98717380D01*
X148876190Y-98669761D01*
X148923809Y-98622142D01*
X149019047Y-98479285D01*
X149066666Y-98288809D01*
X149066666Y-97907857D01*
X149019047Y-97812619D01*
X148971428Y-97765000D01*
X148876190Y-97717380D01*
X148685714Y-97717380D01*
X148590476Y-97765000D01*
X148542857Y-97812619D01*
X148495238Y-97907857D01*
X148495238Y-98145952D01*
X148542857Y-98241190D01*
X148590476Y-98288809D01*
X148685714Y-98336428D01*
X148876190Y-98336428D01*
X148971428Y-98288809D01*
X149019047Y-98241190D01*
X149066666Y-98145952D01*
%TO.C,J2*%
X105782380Y-65683333D02*
X106496666Y-65683333D01*
X106639523Y-65730952D01*
X106734761Y-65826190D01*
X106782380Y-65969047D01*
X106782380Y-66064285D01*
X105877619Y-65254761D02*
X105830000Y-65207142D01*
X105782380Y-65111904D01*
X105782380Y-64873809D01*
X105830000Y-64778571D01*
X105877619Y-64730952D01*
X105972857Y-64683333D01*
X106068095Y-64683333D01*
X106210952Y-64730952D01*
X106782380Y-65302380D01*
X106782380Y-64683333D01*
%TO.C,C15*%
X112607142Y-90987142D02*
X112559523Y-91034761D01*
X112416666Y-91082380D01*
X112321428Y-91082380D01*
X112178571Y-91034761D01*
X112083333Y-90939523D01*
X112035714Y-90844285D01*
X111988095Y-90653809D01*
X111988095Y-90510952D01*
X112035714Y-90320476D01*
X112083333Y-90225238D01*
X112178571Y-90130000D01*
X112321428Y-90082380D01*
X112416666Y-90082380D01*
X112559523Y-90130000D01*
X112607142Y-90177619D01*
X113559523Y-91082380D02*
X112988095Y-91082380D01*
X113273809Y-91082380D02*
X113273809Y-90082380D01*
X113178571Y-90225238D01*
X113083333Y-90320476D01*
X112988095Y-90368095D01*
X114464285Y-90082380D02*
X113988095Y-90082380D01*
X113940476Y-90558571D01*
X113988095Y-90510952D01*
X114083333Y-90463333D01*
X114321428Y-90463333D01*
X114416666Y-90510952D01*
X114464285Y-90558571D01*
X114511904Y-90653809D01*
X114511904Y-90891904D01*
X114464285Y-90987142D01*
X114416666Y-91034761D01*
X114321428Y-91082380D01*
X114083333Y-91082380D01*
X113988095Y-91034761D01*
X113940476Y-90987142D01*
%TO.C,C14*%
X112457142Y-86027142D02*
X112409523Y-86074761D01*
X112266666Y-86122380D01*
X112171428Y-86122380D01*
X112028571Y-86074761D01*
X111933333Y-85979523D01*
X111885714Y-85884285D01*
X111838095Y-85693809D01*
X111838095Y-85550952D01*
X111885714Y-85360476D01*
X111933333Y-85265238D01*
X112028571Y-85170000D01*
X112171428Y-85122380D01*
X112266666Y-85122380D01*
X112409523Y-85170000D01*
X112457142Y-85217619D01*
X113409523Y-86122380D02*
X112838095Y-86122380D01*
X113123809Y-86122380D02*
X113123809Y-85122380D01*
X113028571Y-85265238D01*
X112933333Y-85360476D01*
X112838095Y-85408095D01*
X114266666Y-85455714D02*
X114266666Y-86122380D01*
X114028571Y-85074761D02*
X113790476Y-85789047D01*
X114409523Y-85789047D01*
%TO.C,C13*%
X104487142Y-92642857D02*
X104534761Y-92690476D01*
X104582380Y-92833333D01*
X104582380Y-92928571D01*
X104534761Y-93071428D01*
X104439523Y-93166666D01*
X104344285Y-93214285D01*
X104153809Y-93261904D01*
X104010952Y-93261904D01*
X103820476Y-93214285D01*
X103725238Y-93166666D01*
X103630000Y-93071428D01*
X103582380Y-92928571D01*
X103582380Y-92833333D01*
X103630000Y-92690476D01*
X103677619Y-92642857D01*
X104582380Y-91690476D02*
X104582380Y-92261904D01*
X104582380Y-91976190D02*
X103582380Y-91976190D01*
X103725238Y-92071428D01*
X103820476Y-92166666D01*
X103868095Y-92261904D01*
X103582380Y-91357142D02*
X103582380Y-90738095D01*
X103963333Y-91071428D01*
X103963333Y-90928571D01*
X104010952Y-90833333D01*
X104058571Y-90785714D01*
X104153809Y-90738095D01*
X104391904Y-90738095D01*
X104487142Y-90785714D01*
X104534761Y-90833333D01*
X104582380Y-90928571D01*
X104582380Y-91214285D01*
X104534761Y-91309523D01*
X104487142Y-91357142D01*
%TO.C,C12*%
X116377142Y-70142857D02*
X116424761Y-70190476D01*
X116472380Y-70333333D01*
X116472380Y-70428571D01*
X116424761Y-70571428D01*
X116329523Y-70666666D01*
X116234285Y-70714285D01*
X116043809Y-70761904D01*
X115900952Y-70761904D01*
X115710476Y-70714285D01*
X115615238Y-70666666D01*
X115520000Y-70571428D01*
X115472380Y-70428571D01*
X115472380Y-70333333D01*
X115520000Y-70190476D01*
X115567619Y-70142857D01*
X116472380Y-69190476D02*
X116472380Y-69761904D01*
X116472380Y-69476190D02*
X115472380Y-69476190D01*
X115615238Y-69571428D01*
X115710476Y-69666666D01*
X115758095Y-69761904D01*
X115567619Y-68809523D02*
X115520000Y-68761904D01*
X115472380Y-68666666D01*
X115472380Y-68428571D01*
X115520000Y-68333333D01*
X115567619Y-68285714D01*
X115662857Y-68238095D01*
X115758095Y-68238095D01*
X115900952Y-68285714D01*
X116472380Y-68857142D01*
X116472380Y-68238095D01*
%TO.C,C11*%
X117587142Y-69942857D02*
X117634761Y-69990476D01*
X117682380Y-70133333D01*
X117682380Y-70228571D01*
X117634761Y-70371428D01*
X117539523Y-70466666D01*
X117444285Y-70514285D01*
X117253809Y-70561904D01*
X117110952Y-70561904D01*
X116920476Y-70514285D01*
X116825238Y-70466666D01*
X116730000Y-70371428D01*
X116682380Y-70228571D01*
X116682380Y-70133333D01*
X116730000Y-69990476D01*
X116777619Y-69942857D01*
X117682380Y-68990476D02*
X117682380Y-69561904D01*
X117682380Y-69276190D02*
X116682380Y-69276190D01*
X116825238Y-69371428D01*
X116920476Y-69466666D01*
X116968095Y-69561904D01*
X117682380Y-68038095D02*
X117682380Y-68609523D01*
X117682380Y-68323809D02*
X116682380Y-68323809D01*
X116825238Y-68419047D01*
X116920476Y-68514285D01*
X116968095Y-68609523D01*
%TO.C,C10*%
X118507142Y-68642857D02*
X118554761Y-68690476D01*
X118602380Y-68833333D01*
X118602380Y-68928571D01*
X118554761Y-69071428D01*
X118459523Y-69166666D01*
X118364285Y-69214285D01*
X118173809Y-69261904D01*
X118030952Y-69261904D01*
X117840476Y-69214285D01*
X117745238Y-69166666D01*
X117650000Y-69071428D01*
X117602380Y-68928571D01*
X117602380Y-68833333D01*
X117650000Y-68690476D01*
X117697619Y-68642857D01*
X118602380Y-67690476D02*
X118602380Y-68261904D01*
X118602380Y-67976190D02*
X117602380Y-67976190D01*
X117745238Y-68071428D01*
X117840476Y-68166666D01*
X117888095Y-68261904D01*
X117602380Y-67071428D02*
X117602380Y-66976190D01*
X117650000Y-66880952D01*
X117697619Y-66833333D01*
X117792857Y-66785714D01*
X117983333Y-66738095D01*
X118221428Y-66738095D01*
X118411904Y-66785714D01*
X118507142Y-66833333D01*
X118554761Y-66880952D01*
X118602380Y-66976190D01*
X118602380Y-67071428D01*
X118554761Y-67166666D01*
X118507142Y-67214285D01*
X118411904Y-67261904D01*
X118221428Y-67309523D01*
X117983333Y-67309523D01*
X117792857Y-67261904D01*
X117697619Y-67214285D01*
X117650000Y-67166666D01*
X117602380Y-67071428D01*
%TO.C,C4*%
X116377142Y-73366666D02*
X116424761Y-73414285D01*
X116472380Y-73557142D01*
X116472380Y-73652380D01*
X116424761Y-73795238D01*
X116329523Y-73890476D01*
X116234285Y-73938095D01*
X116043809Y-73985714D01*
X115900952Y-73985714D01*
X115710476Y-73938095D01*
X115615238Y-73890476D01*
X115520000Y-73795238D01*
X115472380Y-73652380D01*
X115472380Y-73557142D01*
X115520000Y-73414285D01*
X115567619Y-73366666D01*
X115805714Y-72509523D02*
X116472380Y-72509523D01*
X115424761Y-72747619D02*
X116139047Y-72985714D01*
X116139047Y-72366666D01*
%TO.C,B2*%
X149695238Y-84178571D02*
X149838095Y-84226190D01*
X149885714Y-84273809D01*
X149933333Y-84369047D01*
X149933333Y-84511904D01*
X149885714Y-84607142D01*
X149838095Y-84654761D01*
X149742857Y-84702380D01*
X149361904Y-84702380D01*
X149361904Y-83702380D01*
X149695238Y-83702380D01*
X149790476Y-83750000D01*
X149838095Y-83797619D01*
X149885714Y-83892857D01*
X149885714Y-83988095D01*
X149838095Y-84083333D01*
X149790476Y-84130952D01*
X149695238Y-84178571D01*
X149361904Y-84178571D01*
X150314285Y-83797619D02*
X150361904Y-83750000D01*
X150457142Y-83702380D01*
X150695238Y-83702380D01*
X150790476Y-83750000D01*
X150838095Y-83797619D01*
X150885714Y-83892857D01*
X150885714Y-83988095D01*
X150838095Y-84130952D01*
X150266666Y-84702380D01*
X150885714Y-84702380D01*
%TO.C,B1*%
X149695238Y-78778571D02*
X149838095Y-78826190D01*
X149885714Y-78873809D01*
X149933333Y-78969047D01*
X149933333Y-79111904D01*
X149885714Y-79207142D01*
X149838095Y-79254761D01*
X149742857Y-79302380D01*
X149361904Y-79302380D01*
X149361904Y-78302380D01*
X149695238Y-78302380D01*
X149790476Y-78350000D01*
X149838095Y-78397619D01*
X149885714Y-78492857D01*
X149885714Y-78588095D01*
X149838095Y-78683333D01*
X149790476Y-78730952D01*
X149695238Y-78778571D01*
X149361904Y-78778571D01*
X150885714Y-79302380D02*
X150314285Y-79302380D01*
X150600000Y-79302380D02*
X150600000Y-78302380D01*
X150504761Y-78445238D01*
X150409523Y-78540476D01*
X150314285Y-78588095D01*
%TO.C,R11*%
X99957142Y-76802380D02*
X99623809Y-76326190D01*
X99385714Y-76802380D02*
X99385714Y-75802380D01*
X99766666Y-75802380D01*
X99861904Y-75850000D01*
X99909523Y-75897619D01*
X99957142Y-75992857D01*
X99957142Y-76135714D01*
X99909523Y-76230952D01*
X99861904Y-76278571D01*
X99766666Y-76326190D01*
X99385714Y-76326190D01*
X100909523Y-76802380D02*
X100338095Y-76802380D01*
X100623809Y-76802380D02*
X100623809Y-75802380D01*
X100528571Y-75945238D01*
X100433333Y-76040476D01*
X100338095Y-76088095D01*
X101861904Y-76802380D02*
X101290476Y-76802380D01*
X101576190Y-76802380D02*
X101576190Y-75802380D01*
X101480952Y-75945238D01*
X101385714Y-76040476D01*
X101290476Y-76088095D01*
%TO.C,R10*%
X99957142Y-74802380D02*
X99623809Y-74326190D01*
X99385714Y-74802380D02*
X99385714Y-73802380D01*
X99766666Y-73802380D01*
X99861904Y-73850000D01*
X99909523Y-73897619D01*
X99957142Y-73992857D01*
X99957142Y-74135714D01*
X99909523Y-74230952D01*
X99861904Y-74278571D01*
X99766666Y-74326190D01*
X99385714Y-74326190D01*
X100909523Y-74802380D02*
X100338095Y-74802380D01*
X100623809Y-74802380D02*
X100623809Y-73802380D01*
X100528571Y-73945238D01*
X100433333Y-74040476D01*
X100338095Y-74088095D01*
X101528571Y-73802380D02*
X101623809Y-73802380D01*
X101719047Y-73850000D01*
X101766666Y-73897619D01*
X101814285Y-73992857D01*
X101861904Y-74183333D01*
X101861904Y-74421428D01*
X101814285Y-74611904D01*
X101766666Y-74707142D01*
X101719047Y-74754761D01*
X101623809Y-74802380D01*
X101528571Y-74802380D01*
X101433333Y-74754761D01*
X101385714Y-74707142D01*
X101338095Y-74611904D01*
X101290476Y-74421428D01*
X101290476Y-74183333D01*
X101338095Y-73992857D01*
X101385714Y-73897619D01*
X101433333Y-73850000D01*
X101528571Y-73802380D01*
%TO.C,R6*%
X104333333Y-72752380D02*
X104000000Y-72276190D01*
X103761904Y-72752380D02*
X103761904Y-71752380D01*
X104142857Y-71752380D01*
X104238095Y-71800000D01*
X104285714Y-71847619D01*
X104333333Y-71942857D01*
X104333333Y-72085714D01*
X104285714Y-72180952D01*
X104238095Y-72228571D01*
X104142857Y-72276190D01*
X103761904Y-72276190D01*
X105190476Y-71752380D02*
X105000000Y-71752380D01*
X104904761Y-71800000D01*
X104857142Y-71847619D01*
X104761904Y-71990476D01*
X104714285Y-72180952D01*
X104714285Y-72561904D01*
X104761904Y-72657142D01*
X104809523Y-72704761D01*
X104904761Y-72752380D01*
X105095238Y-72752380D01*
X105190476Y-72704761D01*
X105238095Y-72657142D01*
X105285714Y-72561904D01*
X105285714Y-72323809D01*
X105238095Y-72228571D01*
X105190476Y-72180952D01*
X105095238Y-72133333D01*
X104904761Y-72133333D01*
X104809523Y-72180952D01*
X104761904Y-72228571D01*
X104714285Y-72323809D01*
%TO.C,R5*%
X104333333Y-73902380D02*
X104000000Y-73426190D01*
X103761904Y-73902380D02*
X103761904Y-72902380D01*
X104142857Y-72902380D01*
X104238095Y-72950000D01*
X104285714Y-72997619D01*
X104333333Y-73092857D01*
X104333333Y-73235714D01*
X104285714Y-73330952D01*
X104238095Y-73378571D01*
X104142857Y-73426190D01*
X103761904Y-73426190D01*
X105238095Y-72902380D02*
X104761904Y-72902380D01*
X104714285Y-73378571D01*
X104761904Y-73330952D01*
X104857142Y-73283333D01*
X105095238Y-73283333D01*
X105190476Y-73330952D01*
X105238095Y-73378571D01*
X105285714Y-73473809D01*
X105285714Y-73711904D01*
X105238095Y-73807142D01*
X105190476Y-73854761D01*
X105095238Y-73902380D01*
X104857142Y-73902380D01*
X104761904Y-73854761D01*
X104714285Y-73807142D01*
%TO.C,J5*%
D15*
X154266666Y-94516666D02*
X154266666Y-95016666D01*
X154233333Y-95116666D01*
X154166666Y-95183333D01*
X154066666Y-95216666D01*
X154000000Y-95216666D01*
X154933333Y-94516666D02*
X154600000Y-94516666D01*
X154566666Y-94850000D01*
X154600000Y-94816666D01*
X154666666Y-94783333D01*
X154833333Y-94783333D01*
X154900000Y-94816666D01*
X154933333Y-94850000D01*
X154966666Y-94916666D01*
X154966666Y-95083333D01*
X154933333Y-95150000D01*
X154900000Y-95183333D01*
X154833333Y-95216666D01*
X154666666Y-95216666D01*
X154600000Y-95183333D01*
X154566666Y-95150000D01*
%TO.C,J8*%
X140886666Y-68933333D02*
X141386666Y-68933333D01*
X141486666Y-68966666D01*
X141553333Y-69033333D01*
X141586666Y-69133333D01*
X141586666Y-69200000D01*
X141186666Y-68500000D02*
X141153333Y-68566666D01*
X141120000Y-68600000D01*
X141053333Y-68633333D01*
X141020000Y-68633333D01*
X140953333Y-68600000D01*
X140920000Y-68566666D01*
X140886666Y-68500000D01*
X140886666Y-68366666D01*
X140920000Y-68300000D01*
X140953333Y-68266666D01*
X141020000Y-68233333D01*
X141053333Y-68233333D01*
X141120000Y-68266666D01*
X141153333Y-68300000D01*
X141186666Y-68366666D01*
X141186666Y-68500000D01*
X141220000Y-68566666D01*
X141253333Y-68600000D01*
X141320000Y-68633333D01*
X141453333Y-68633333D01*
X141520000Y-68600000D01*
X141553333Y-68566666D01*
X141586666Y-68500000D01*
X141586666Y-68366666D01*
X141553333Y-68300000D01*
X141520000Y-68266666D01*
X141453333Y-68233333D01*
X141320000Y-68233333D01*
X141253333Y-68266666D01*
X141220000Y-68300000D01*
X141186666Y-68366666D01*
%TO.C,J4*%
X157866666Y-75246666D02*
X157866666Y-75746666D01*
X157833333Y-75846666D01*
X157766666Y-75913333D01*
X157666666Y-75946666D01*
X157600000Y-75946666D01*
X158500000Y-75480000D02*
X158500000Y-75946666D01*
X158333333Y-75213333D02*
X158166666Y-75713333D01*
X158600000Y-75713333D01*
%TO.C,J3*%
X157866666Y-83446666D02*
X157866666Y-83946666D01*
X157833333Y-84046666D01*
X157766666Y-84113333D01*
X157666666Y-84146666D01*
X157600000Y-84146666D01*
X158133333Y-83446666D02*
X158566666Y-83446666D01*
X158333333Y-83713333D01*
X158433333Y-83713333D01*
X158500000Y-83746666D01*
X158533333Y-83780000D01*
X158566666Y-83846666D01*
X158566666Y-84013333D01*
X158533333Y-84080000D01*
X158500000Y-84113333D01*
X158433333Y-84146666D01*
X158233333Y-84146666D01*
X158166666Y-84113333D01*
X158133333Y-84080000D01*
%TO.C,J1*%
X157866666Y-67046666D02*
X157866666Y-67546666D01*
X157833333Y-67646666D01*
X157766666Y-67713333D01*
X157666666Y-67746666D01*
X157600000Y-67746666D01*
X158566666Y-67746666D02*
X158166666Y-67746666D01*
X158366666Y-67746666D02*
X158366666Y-67046666D01*
X158300000Y-67146666D01*
X158233333Y-67213333D01*
X158166666Y-67246666D01*
%TO.C,R14*%
X142137500Y-82416666D02*
X141904166Y-82083333D01*
X141737500Y-82416666D02*
X141737500Y-81716666D01*
X142004166Y-81716666D01*
X142070833Y-81750000D01*
X142104166Y-81783333D01*
X142137500Y-81850000D01*
X142137500Y-81950000D01*
X142104166Y-82016666D01*
X142070833Y-82050000D01*
X142004166Y-82083333D01*
X141737500Y-82083333D01*
X142804166Y-82416666D02*
X142404166Y-82416666D01*
X142604166Y-82416666D02*
X142604166Y-81716666D01*
X142537500Y-81816666D01*
X142470833Y-81883333D01*
X142404166Y-81916666D01*
X143404166Y-81950000D02*
X143404166Y-82416666D01*
X143237500Y-81683333D02*
X143070833Y-82183333D01*
X143504166Y-82183333D01*
%TO.C,R12*%
X147567500Y-87766666D02*
X147334166Y-87433333D01*
X147167500Y-87766666D02*
X147167500Y-87066666D01*
X147434166Y-87066666D01*
X147500833Y-87100000D01*
X147534166Y-87133333D01*
X147567500Y-87200000D01*
X147567500Y-87300000D01*
X147534166Y-87366666D01*
X147500833Y-87400000D01*
X147434166Y-87433333D01*
X147167500Y-87433333D01*
X148234166Y-87766666D02*
X147834166Y-87766666D01*
X148034166Y-87766666D02*
X148034166Y-87066666D01*
X147967500Y-87166666D01*
X147900833Y-87233333D01*
X147834166Y-87266666D01*
X148500833Y-87133333D02*
X148534166Y-87100000D01*
X148600833Y-87066666D01*
X148767500Y-87066666D01*
X148834166Y-87100000D01*
X148867500Y-87133333D01*
X148900833Y-87200000D01*
X148900833Y-87266666D01*
X148867500Y-87366666D01*
X148467500Y-87766666D01*
X148900833Y-87766666D01*
%TO.C,J7*%
X140886666Y-65733333D02*
X141386666Y-65733333D01*
X141486666Y-65766666D01*
X141553333Y-65833333D01*
X141586666Y-65933333D01*
X141586666Y-66000000D01*
X140886666Y-65466666D02*
X140886666Y-65000000D01*
X141586666Y-65300000D01*
%TO.C,TH1*%
X129916666Y-91600000D02*
X129916666Y-91200000D01*
X130616666Y-91400000D02*
X129916666Y-91400000D01*
X130616666Y-90966666D02*
X129916666Y-90966666D01*
X130250000Y-90966666D02*
X130250000Y-90566666D01*
X130616666Y-90566666D02*
X129916666Y-90566666D01*
X130616666Y-89866666D02*
X130616666Y-90266666D01*
X130616666Y-90066666D02*
X129916666Y-90066666D01*
X130016666Y-90133333D01*
X130083333Y-90200000D01*
X130116666Y-90266666D01*
%TO.C,R21*%
X126616666Y-88550000D02*
X126283333Y-88783333D01*
X126616666Y-88950000D02*
X125916666Y-88950000D01*
X125916666Y-88683333D01*
X125950000Y-88616666D01*
X125983333Y-88583333D01*
X126050000Y-88550000D01*
X126150000Y-88550000D01*
X126216666Y-88583333D01*
X126250000Y-88616666D01*
X126283333Y-88683333D01*
X126283333Y-88950000D01*
X125983333Y-88283333D02*
X125950000Y-88250000D01*
X125916666Y-88183333D01*
X125916666Y-88016666D01*
X125950000Y-87950000D01*
X125983333Y-87916666D01*
X126050000Y-87883333D01*
X126116666Y-87883333D01*
X126216666Y-87916666D01*
X126616666Y-88316666D01*
X126616666Y-87883333D01*
X126616666Y-87216666D02*
X126616666Y-87616666D01*
X126616666Y-87416666D02*
X125916666Y-87416666D01*
X126016666Y-87483333D01*
X126083333Y-87550000D01*
X126116666Y-87616666D01*
%TO.C,R17*%
X137750000Y-96516666D02*
X137516666Y-96183333D01*
X137350000Y-96516666D02*
X137350000Y-95816666D01*
X137616666Y-95816666D01*
X137683333Y-95850000D01*
X137716666Y-95883333D01*
X137750000Y-95950000D01*
X137750000Y-96050000D01*
X137716666Y-96116666D01*
X137683333Y-96150000D01*
X137616666Y-96183333D01*
X137350000Y-96183333D01*
X138416666Y-96516666D02*
X138016666Y-96516666D01*
X138216666Y-96516666D02*
X138216666Y-95816666D01*
X138150000Y-95916666D01*
X138083333Y-95983333D01*
X138016666Y-96016666D01*
X138650000Y-95816666D02*
X139116666Y-95816666D01*
X138816666Y-96516666D01*
%TO.C,R16*%
X137750000Y-95016666D02*
X137516666Y-94683333D01*
X137350000Y-95016666D02*
X137350000Y-94316666D01*
X137616666Y-94316666D01*
X137683333Y-94350000D01*
X137716666Y-94383333D01*
X137750000Y-94450000D01*
X137750000Y-94550000D01*
X137716666Y-94616666D01*
X137683333Y-94650000D01*
X137616666Y-94683333D01*
X137350000Y-94683333D01*
X138416666Y-95016666D02*
X138016666Y-95016666D01*
X138216666Y-95016666D02*
X138216666Y-94316666D01*
X138150000Y-94416666D01*
X138083333Y-94483333D01*
X138016666Y-94516666D01*
X139016666Y-94316666D02*
X138883333Y-94316666D01*
X138816666Y-94350000D01*
X138783333Y-94383333D01*
X138716666Y-94483333D01*
X138683333Y-94616666D01*
X138683333Y-94883333D01*
X138716666Y-94950000D01*
X138750000Y-94983333D01*
X138816666Y-95016666D01*
X138950000Y-95016666D01*
X139016666Y-94983333D01*
X139050000Y-94950000D01*
X139083333Y-94883333D01*
X139083333Y-94716666D01*
X139050000Y-94650000D01*
X139016666Y-94616666D01*
X138950000Y-94583333D01*
X138816666Y-94583333D01*
X138750000Y-94616666D01*
X138716666Y-94650000D01*
X138683333Y-94716666D01*
%TO.C,R15*%
X137750000Y-92716666D02*
X137516666Y-92383333D01*
X137350000Y-92716666D02*
X137350000Y-92016666D01*
X137616666Y-92016666D01*
X137683333Y-92050000D01*
X137716666Y-92083333D01*
X137750000Y-92150000D01*
X137750000Y-92250000D01*
X137716666Y-92316666D01*
X137683333Y-92350000D01*
X137616666Y-92383333D01*
X137350000Y-92383333D01*
X138416666Y-92716666D02*
X138016666Y-92716666D01*
X138216666Y-92716666D02*
X138216666Y-92016666D01*
X138150000Y-92116666D01*
X138083333Y-92183333D01*
X138016666Y-92216666D01*
X139050000Y-92016666D02*
X138716666Y-92016666D01*
X138683333Y-92350000D01*
X138716666Y-92316666D01*
X138783333Y-92283333D01*
X138950000Y-92283333D01*
X139016666Y-92316666D01*
X139050000Y-92350000D01*
X139083333Y-92416666D01*
X139083333Y-92583333D01*
X139050000Y-92650000D01*
X139016666Y-92683333D01*
X138950000Y-92716666D01*
X138783333Y-92716666D01*
X138716666Y-92683333D01*
X138683333Y-92650000D01*
%TO.C,R13*%
X137850000Y-90516666D02*
X137616666Y-90183333D01*
X137450000Y-90516666D02*
X137450000Y-89816666D01*
X137716666Y-89816666D01*
X137783333Y-89850000D01*
X137816666Y-89883333D01*
X137850000Y-89950000D01*
X137850000Y-90050000D01*
X137816666Y-90116666D01*
X137783333Y-90150000D01*
X137716666Y-90183333D01*
X137450000Y-90183333D01*
X138516666Y-90516666D02*
X138116666Y-90516666D01*
X138316666Y-90516666D02*
X138316666Y-89816666D01*
X138250000Y-89916666D01*
X138183333Y-89983333D01*
X138116666Y-90016666D01*
X138750000Y-89816666D02*
X139183333Y-89816666D01*
X138950000Y-90083333D01*
X139050000Y-90083333D01*
X139116666Y-90116666D01*
X139150000Y-90150000D01*
X139183333Y-90216666D01*
X139183333Y-90383333D01*
X139150000Y-90450000D01*
X139116666Y-90483333D01*
X139050000Y-90516666D01*
X138850000Y-90516666D01*
X138783333Y-90483333D01*
X138750000Y-90450000D01*
%TO.C,R27*%
X108650000Y-100416666D02*
X108416666Y-100083333D01*
X108250000Y-100416666D02*
X108250000Y-99716666D01*
X108516666Y-99716666D01*
X108583333Y-99750000D01*
X108616666Y-99783333D01*
X108650000Y-99850000D01*
X108650000Y-99950000D01*
X108616666Y-100016666D01*
X108583333Y-100050000D01*
X108516666Y-100083333D01*
X108250000Y-100083333D01*
X108916666Y-99783333D02*
X108950000Y-99750000D01*
X109016666Y-99716666D01*
X109183333Y-99716666D01*
X109250000Y-99750000D01*
X109283333Y-99783333D01*
X109316666Y-99850000D01*
X109316666Y-99916666D01*
X109283333Y-100016666D01*
X108883333Y-100416666D01*
X109316666Y-100416666D01*
X109550000Y-99716666D02*
X110016666Y-99716666D01*
X109716666Y-100416666D01*
%TO.C,D9*%
X114983333Y-98766666D02*
X114983333Y-98066666D01*
X115150000Y-98066666D01*
X115250000Y-98100000D01*
X115316666Y-98166666D01*
X115350000Y-98233333D01*
X115383333Y-98366666D01*
X115383333Y-98466666D01*
X115350000Y-98600000D01*
X115316666Y-98666666D01*
X115250000Y-98733333D01*
X115150000Y-98766666D01*
X114983333Y-98766666D01*
X115716666Y-98766666D02*
X115850000Y-98766666D01*
X115916666Y-98733333D01*
X115950000Y-98700000D01*
X116016666Y-98600000D01*
X116050000Y-98466666D01*
X116050000Y-98200000D01*
X116016666Y-98133333D01*
X115983333Y-98100000D01*
X115916666Y-98066666D01*
X115783333Y-98066666D01*
X115716666Y-98100000D01*
X115683333Y-98133333D01*
X115650000Y-98200000D01*
X115650000Y-98366666D01*
X115683333Y-98433333D01*
X115716666Y-98466666D01*
X115783333Y-98500000D01*
X115916666Y-98500000D01*
X115983333Y-98466666D01*
X116016666Y-98433333D01*
X116050000Y-98366666D01*
%TO.C,C9*%
X109230000Y-81666666D02*
X109263333Y-81700000D01*
X109296666Y-81800000D01*
X109296666Y-81866666D01*
X109263333Y-81966666D01*
X109196666Y-82033333D01*
X109130000Y-82066666D01*
X108996666Y-82100000D01*
X108896666Y-82100000D01*
X108763333Y-82066666D01*
X108696666Y-82033333D01*
X108630000Y-81966666D01*
X108596666Y-81866666D01*
X108596666Y-81800000D01*
X108630000Y-81700000D01*
X108663333Y-81666666D01*
X109296666Y-81333333D02*
X109296666Y-81200000D01*
X109263333Y-81133333D01*
X109230000Y-81100000D01*
X109130000Y-81033333D01*
X108996666Y-81000000D01*
X108730000Y-81000000D01*
X108663333Y-81033333D01*
X108630000Y-81066666D01*
X108596666Y-81133333D01*
X108596666Y-81266666D01*
X108630000Y-81333333D01*
X108663333Y-81366666D01*
X108730000Y-81400000D01*
X108896666Y-81400000D01*
X108963333Y-81366666D01*
X108996666Y-81333333D01*
X109030000Y-81266666D01*
X109030000Y-81133333D01*
X108996666Y-81066666D01*
X108963333Y-81033333D01*
X108896666Y-81000000D01*
%TO.C,U2*%
X124835051Y-62169141D02*
X124835051Y-62735808D01*
X124868385Y-62802475D01*
X124901718Y-62835808D01*
X124968385Y-62869141D01*
X125101718Y-62869141D01*
X125168385Y-62835808D01*
X125201718Y-62802475D01*
X125235051Y-62735808D01*
X125235051Y-62169141D01*
X125535051Y-62235808D02*
X125568385Y-62202475D01*
X125635051Y-62169141D01*
X125801718Y-62169141D01*
X125868385Y-62202475D01*
X125901718Y-62235808D01*
X125935051Y-62302475D01*
X125935051Y-62369141D01*
X125901718Y-62469141D01*
X125501718Y-62869141D01*
X125935051Y-62869141D01*
%TO.C,U5*%
X128416666Y-90491666D02*
X128416666Y-91058333D01*
X128450000Y-91125000D01*
X128483333Y-91158333D01*
X128550000Y-91191666D01*
X128683333Y-91191666D01*
X128750000Y-91158333D01*
X128783333Y-91125000D01*
X128816666Y-91058333D01*
X128816666Y-90491666D01*
X129483333Y-90491666D02*
X129150000Y-90491666D01*
X129116666Y-90825000D01*
X129150000Y-90791666D01*
X129216666Y-90758333D01*
X129383333Y-90758333D01*
X129450000Y-90791666D01*
X129483333Y-90825000D01*
X129516666Y-90891666D01*
X129516666Y-91058333D01*
X129483333Y-91125000D01*
X129450000Y-91158333D01*
X129383333Y-91191666D01*
X129216666Y-91191666D01*
X129150000Y-91158333D01*
X129116666Y-91125000D01*
%TO.C,U4*%
X101466666Y-84416666D02*
X101466666Y-84983333D01*
X101500000Y-85050000D01*
X101533333Y-85083333D01*
X101600000Y-85116666D01*
X101733333Y-85116666D01*
X101800000Y-85083333D01*
X101833333Y-85050000D01*
X101866666Y-84983333D01*
X101866666Y-84416666D01*
X102500000Y-84650000D02*
X102500000Y-85116666D01*
X102333333Y-84383333D02*
X102166666Y-84883333D01*
X102600000Y-84883333D01*
%TO.C,U3*%
X120566666Y-97091666D02*
X120566666Y-97658333D01*
X120600000Y-97725000D01*
X120633333Y-97758333D01*
X120700000Y-97791666D01*
X120833333Y-97791666D01*
X120900000Y-97758333D01*
X120933333Y-97725000D01*
X120966666Y-97658333D01*
X120966666Y-97091666D01*
X121233333Y-97091666D02*
X121666666Y-97091666D01*
X121433333Y-97358333D01*
X121533333Y-97358333D01*
X121600000Y-97391666D01*
X121633333Y-97425000D01*
X121666666Y-97491666D01*
X121666666Y-97658333D01*
X121633333Y-97725000D01*
X121600000Y-97758333D01*
X121533333Y-97791666D01*
X121333333Y-97791666D01*
X121266666Y-97758333D01*
X121233333Y-97725000D01*
%TO.C,SW3*%
X112266666Y-102783333D02*
X112366666Y-102816666D01*
X112533333Y-102816666D01*
X112600000Y-102783333D01*
X112633333Y-102750000D01*
X112666666Y-102683333D01*
X112666666Y-102616666D01*
X112633333Y-102550000D01*
X112600000Y-102516666D01*
X112533333Y-102483333D01*
X112400000Y-102450000D01*
X112333333Y-102416666D01*
X112300000Y-102383333D01*
X112266666Y-102316666D01*
X112266666Y-102250000D01*
X112300000Y-102183333D01*
X112333333Y-102150000D01*
X112400000Y-102116666D01*
X112566666Y-102116666D01*
X112666666Y-102150000D01*
X112900000Y-102116666D02*
X113066666Y-102816666D01*
X113200000Y-102316666D01*
X113333333Y-102816666D01*
X113500000Y-102116666D01*
X113700000Y-102116666D02*
X114133333Y-102116666D01*
X113900000Y-102383333D01*
X114000000Y-102383333D01*
X114066666Y-102416666D01*
X114100000Y-102450000D01*
X114133333Y-102516666D01*
X114133333Y-102683333D01*
X114100000Y-102750000D01*
X114066666Y-102783333D01*
X114000000Y-102816666D01*
X113800000Y-102816666D01*
X113733333Y-102783333D01*
X113700000Y-102750000D01*
%TO.C,R26*%
X135016666Y-96250000D02*
X134683333Y-96483333D01*
X135016666Y-96650000D02*
X134316666Y-96650000D01*
X134316666Y-96383333D01*
X134350000Y-96316666D01*
X134383333Y-96283333D01*
X134450000Y-96250000D01*
X134550000Y-96250000D01*
X134616666Y-96283333D01*
X134650000Y-96316666D01*
X134683333Y-96383333D01*
X134683333Y-96650000D01*
X134383333Y-95983333D02*
X134350000Y-95950000D01*
X134316666Y-95883333D01*
X134316666Y-95716666D01*
X134350000Y-95650000D01*
X134383333Y-95616666D01*
X134450000Y-95583333D01*
X134516666Y-95583333D01*
X134616666Y-95616666D01*
X135016666Y-96016666D01*
X135016666Y-95583333D01*
X134316666Y-94983333D02*
X134316666Y-95116666D01*
X134350000Y-95183333D01*
X134383333Y-95216666D01*
X134483333Y-95283333D01*
X134616666Y-95316666D01*
X134883333Y-95316666D01*
X134950000Y-95283333D01*
X134983333Y-95250000D01*
X135016666Y-95183333D01*
X135016666Y-95050000D01*
X134983333Y-94983333D01*
X134950000Y-94950000D01*
X134883333Y-94916666D01*
X134716666Y-94916666D01*
X134650000Y-94950000D01*
X134616666Y-94983333D01*
X134583333Y-95050000D01*
X134583333Y-95183333D01*
X134616666Y-95250000D01*
X134650000Y-95283333D01*
X134716666Y-95316666D01*
%TO.C,R25*%
X137216666Y-96250000D02*
X136883333Y-96483333D01*
X137216666Y-96650000D02*
X136516666Y-96650000D01*
X136516666Y-96383333D01*
X136550000Y-96316666D01*
X136583333Y-96283333D01*
X136650000Y-96250000D01*
X136750000Y-96250000D01*
X136816666Y-96283333D01*
X136850000Y-96316666D01*
X136883333Y-96383333D01*
X136883333Y-96650000D01*
X136583333Y-95983333D02*
X136550000Y-95950000D01*
X136516666Y-95883333D01*
X136516666Y-95716666D01*
X136550000Y-95650000D01*
X136583333Y-95616666D01*
X136650000Y-95583333D01*
X136716666Y-95583333D01*
X136816666Y-95616666D01*
X137216666Y-96016666D01*
X137216666Y-95583333D01*
X136516666Y-94950000D02*
X136516666Y-95283333D01*
X136850000Y-95316666D01*
X136816666Y-95283333D01*
X136783333Y-95216666D01*
X136783333Y-95050000D01*
X136816666Y-94983333D01*
X136850000Y-94950000D01*
X136916666Y-94916666D01*
X137083333Y-94916666D01*
X137150000Y-94950000D01*
X137183333Y-94983333D01*
X137216666Y-95050000D01*
X137216666Y-95216666D01*
X137183333Y-95283333D01*
X137150000Y-95316666D01*
%TO.C,R24*%
X132916666Y-96250000D02*
X132583333Y-96483333D01*
X132916666Y-96650000D02*
X132216666Y-96650000D01*
X132216666Y-96383333D01*
X132250000Y-96316666D01*
X132283333Y-96283333D01*
X132350000Y-96250000D01*
X132450000Y-96250000D01*
X132516666Y-96283333D01*
X132550000Y-96316666D01*
X132583333Y-96383333D01*
X132583333Y-96650000D01*
X132283333Y-95983333D02*
X132250000Y-95950000D01*
X132216666Y-95883333D01*
X132216666Y-95716666D01*
X132250000Y-95650000D01*
X132283333Y-95616666D01*
X132350000Y-95583333D01*
X132416666Y-95583333D01*
X132516666Y-95616666D01*
X132916666Y-96016666D01*
X132916666Y-95583333D01*
X132450000Y-94983333D02*
X132916666Y-94983333D01*
X132183333Y-95150000D02*
X132683333Y-95316666D01*
X132683333Y-94883333D01*
%TO.C,R23*%
X98050000Y-90366666D02*
X97816666Y-90033333D01*
X97650000Y-90366666D02*
X97650000Y-89666666D01*
X97916666Y-89666666D01*
X97983333Y-89700000D01*
X98016666Y-89733333D01*
X98050000Y-89800000D01*
X98050000Y-89900000D01*
X98016666Y-89966666D01*
X97983333Y-90000000D01*
X97916666Y-90033333D01*
X97650000Y-90033333D01*
X98316666Y-89733333D02*
X98350000Y-89700000D01*
X98416666Y-89666666D01*
X98583333Y-89666666D01*
X98650000Y-89700000D01*
X98683333Y-89733333D01*
X98716666Y-89800000D01*
X98716666Y-89866666D01*
X98683333Y-89966666D01*
X98283333Y-90366666D01*
X98716666Y-90366666D01*
X98950000Y-89666666D02*
X99383333Y-89666666D01*
X99150000Y-89933333D01*
X99250000Y-89933333D01*
X99316666Y-89966666D01*
X99350000Y-90000000D01*
X99383333Y-90066666D01*
X99383333Y-90233333D01*
X99350000Y-90300000D01*
X99316666Y-90333333D01*
X99250000Y-90366666D01*
X99050000Y-90366666D01*
X98983333Y-90333333D01*
X98950000Y-90300000D01*
%TO.C,R19*%
X126316666Y-97550000D02*
X125983333Y-97783333D01*
X126316666Y-97950000D02*
X125616666Y-97950000D01*
X125616666Y-97683333D01*
X125650000Y-97616666D01*
X125683333Y-97583333D01*
X125750000Y-97550000D01*
X125850000Y-97550000D01*
X125916666Y-97583333D01*
X125950000Y-97616666D01*
X125983333Y-97683333D01*
X125983333Y-97950000D01*
X126316666Y-96883333D02*
X126316666Y-97283333D01*
X126316666Y-97083333D02*
X125616666Y-97083333D01*
X125716666Y-97150000D01*
X125783333Y-97216666D01*
X125816666Y-97283333D01*
X126316666Y-96550000D02*
X126316666Y-96416666D01*
X126283333Y-96350000D01*
X126250000Y-96316666D01*
X126150000Y-96250000D01*
X126016666Y-96216666D01*
X125750000Y-96216666D01*
X125683333Y-96250000D01*
X125650000Y-96283333D01*
X125616666Y-96350000D01*
X125616666Y-96483333D01*
X125650000Y-96550000D01*
X125683333Y-96583333D01*
X125750000Y-96616666D01*
X125916666Y-96616666D01*
X125983333Y-96583333D01*
X126016666Y-96550000D01*
X126050000Y-96483333D01*
X126050000Y-96350000D01*
X126016666Y-96283333D01*
X125983333Y-96250000D01*
X125916666Y-96216666D01*
%TO.C,R18*%
X121516666Y-97437500D02*
X121183333Y-97670833D01*
X121516666Y-97837500D02*
X120816666Y-97837500D01*
X120816666Y-97570833D01*
X120850000Y-97504166D01*
X120883333Y-97470833D01*
X120950000Y-97437500D01*
X121050000Y-97437500D01*
X121116666Y-97470833D01*
X121150000Y-97504166D01*
X121183333Y-97570833D01*
X121183333Y-97837500D01*
X121516666Y-96770833D02*
X121516666Y-97170833D01*
X121516666Y-96970833D02*
X120816666Y-96970833D01*
X120916666Y-97037500D01*
X120983333Y-97104166D01*
X121016666Y-97170833D01*
X121116666Y-96370833D02*
X121083333Y-96437500D01*
X121050000Y-96470833D01*
X120983333Y-96504166D01*
X120950000Y-96504166D01*
X120883333Y-96470833D01*
X120850000Y-96437500D01*
X120816666Y-96370833D01*
X120816666Y-96237500D01*
X120850000Y-96170833D01*
X120883333Y-96137500D01*
X120950000Y-96104166D01*
X120983333Y-96104166D01*
X121050000Y-96137500D01*
X121083333Y-96170833D01*
X121116666Y-96237500D01*
X121116666Y-96370833D01*
X121150000Y-96437500D01*
X121183333Y-96470833D01*
X121250000Y-96504166D01*
X121383333Y-96504166D01*
X121450000Y-96470833D01*
X121483333Y-96437500D01*
X121516666Y-96370833D01*
X121516666Y-96237500D01*
X121483333Y-96170833D01*
X121450000Y-96137500D01*
X121383333Y-96104166D01*
X121250000Y-96104166D01*
X121183333Y-96137500D01*
X121150000Y-96170833D01*
X121116666Y-96237500D01*
%TO.C,R9*%
X103008333Y-74216666D02*
X102775000Y-73883333D01*
X102608333Y-74216666D02*
X102608333Y-73516666D01*
X102875000Y-73516666D01*
X102941666Y-73550000D01*
X102975000Y-73583333D01*
X103008333Y-73650000D01*
X103008333Y-73750000D01*
X102975000Y-73816666D01*
X102941666Y-73850000D01*
X102875000Y-73883333D01*
X102608333Y-73883333D01*
X103341666Y-74216666D02*
X103475000Y-74216666D01*
X103541666Y-74183333D01*
X103575000Y-74150000D01*
X103641666Y-74050000D01*
X103675000Y-73916666D01*
X103675000Y-73650000D01*
X103641666Y-73583333D01*
X103608333Y-73550000D01*
X103541666Y-73516666D01*
X103408333Y-73516666D01*
X103341666Y-73550000D01*
X103308333Y-73583333D01*
X103275000Y-73650000D01*
X103275000Y-73816666D01*
X103308333Y-73883333D01*
X103341666Y-73916666D01*
X103408333Y-73950000D01*
X103541666Y-73950000D01*
X103608333Y-73916666D01*
X103641666Y-73883333D01*
X103675000Y-73816666D01*
%TO.C,R8*%
X142033333Y-99091666D02*
X141800000Y-98758333D01*
X141633333Y-99091666D02*
X141633333Y-98391666D01*
X141900000Y-98391666D01*
X141966666Y-98425000D01*
X142000000Y-98458333D01*
X142033333Y-98525000D01*
X142033333Y-98625000D01*
X142000000Y-98691666D01*
X141966666Y-98725000D01*
X141900000Y-98758333D01*
X141633333Y-98758333D01*
X142433333Y-98691666D02*
X142366666Y-98658333D01*
X142333333Y-98625000D01*
X142300000Y-98558333D01*
X142300000Y-98525000D01*
X142333333Y-98458333D01*
X142366666Y-98425000D01*
X142433333Y-98391666D01*
X142566666Y-98391666D01*
X142633333Y-98425000D01*
X142666666Y-98458333D01*
X142700000Y-98525000D01*
X142700000Y-98558333D01*
X142666666Y-98625000D01*
X142633333Y-98658333D01*
X142566666Y-98691666D01*
X142433333Y-98691666D01*
X142366666Y-98725000D01*
X142333333Y-98758333D01*
X142300000Y-98825000D01*
X142300000Y-98958333D01*
X142333333Y-99025000D01*
X142366666Y-99058333D01*
X142433333Y-99091666D01*
X142566666Y-99091666D01*
X142633333Y-99058333D01*
X142666666Y-99025000D01*
X142700000Y-98958333D01*
X142700000Y-98825000D01*
X142666666Y-98758333D01*
X142633333Y-98725000D01*
X142566666Y-98691666D01*
%TO.C,R7*%
X139833333Y-99116666D02*
X139600000Y-98783333D01*
X139433333Y-99116666D02*
X139433333Y-98416666D01*
X139700000Y-98416666D01*
X139766666Y-98450000D01*
X139800000Y-98483333D01*
X139833333Y-98550000D01*
X139833333Y-98650000D01*
X139800000Y-98716666D01*
X139766666Y-98750000D01*
X139700000Y-98783333D01*
X139433333Y-98783333D01*
X140066666Y-98416666D02*
X140533333Y-98416666D01*
X140233333Y-99116666D01*
%TO.C,R4*%
X138166666Y-98716666D02*
X137833333Y-98950000D01*
X138166666Y-99116666D02*
X137466666Y-99116666D01*
X137466666Y-98850000D01*
X137500000Y-98783333D01*
X137533333Y-98750000D01*
X137600000Y-98716666D01*
X137700000Y-98716666D01*
X137766666Y-98750000D01*
X137800000Y-98783333D01*
X137833333Y-98850000D01*
X137833333Y-99116666D01*
X137700000Y-98116666D02*
X138166666Y-98116666D01*
X137433333Y-98283333D02*
X137933333Y-98450000D01*
X137933333Y-98016666D01*
%TO.C,R3*%
X135866666Y-98716666D02*
X135533333Y-98950000D01*
X135866666Y-99116666D02*
X135166666Y-99116666D01*
X135166666Y-98850000D01*
X135200000Y-98783333D01*
X135233333Y-98750000D01*
X135300000Y-98716666D01*
X135400000Y-98716666D01*
X135466666Y-98750000D01*
X135500000Y-98783333D01*
X135533333Y-98850000D01*
X135533333Y-99116666D01*
X135166666Y-98483333D02*
X135166666Y-98050000D01*
X135433333Y-98283333D01*
X135433333Y-98183333D01*
X135466666Y-98116666D01*
X135500000Y-98083333D01*
X135566666Y-98050000D01*
X135733333Y-98050000D01*
X135800000Y-98083333D01*
X135833333Y-98116666D01*
X135866666Y-98183333D01*
X135866666Y-98383333D01*
X135833333Y-98450000D01*
X135800000Y-98483333D01*
%TO.C,R2*%
X104316666Y-69316666D02*
X103983333Y-69550000D01*
X104316666Y-69716666D02*
X103616666Y-69716666D01*
X103616666Y-69450000D01*
X103650000Y-69383333D01*
X103683333Y-69350000D01*
X103750000Y-69316666D01*
X103850000Y-69316666D01*
X103916666Y-69350000D01*
X103950000Y-69383333D01*
X103983333Y-69450000D01*
X103983333Y-69716666D01*
X103683333Y-69050000D02*
X103650000Y-69016666D01*
X103616666Y-68950000D01*
X103616666Y-68783333D01*
X103650000Y-68716666D01*
X103683333Y-68683333D01*
X103750000Y-68650000D01*
X103816666Y-68650000D01*
X103916666Y-68683333D01*
X104316666Y-69083333D01*
X104316666Y-68650000D01*
%TO.C,R1*%
X103316666Y-69291666D02*
X102983333Y-69525000D01*
X103316666Y-69691666D02*
X102616666Y-69691666D01*
X102616666Y-69425000D01*
X102650000Y-69358333D01*
X102683333Y-69325000D01*
X102750000Y-69291666D01*
X102850000Y-69291666D01*
X102916666Y-69325000D01*
X102950000Y-69358333D01*
X102983333Y-69425000D01*
X102983333Y-69691666D01*
X103316666Y-68625000D02*
X103316666Y-69025000D01*
X103316666Y-68825000D02*
X102616666Y-68825000D01*
X102716666Y-68891666D01*
X102783333Y-68958333D01*
X102816666Y-69025000D01*
%TO.C,Q2*%
X98333333Y-87383333D02*
X98266666Y-87350000D01*
X98200000Y-87283333D01*
X98100000Y-87183333D01*
X98033333Y-87150000D01*
X97966666Y-87150000D01*
X98000000Y-87316666D02*
X97933333Y-87283333D01*
X97866666Y-87216666D01*
X97833333Y-87083333D01*
X97833333Y-86850000D01*
X97866666Y-86716666D01*
X97933333Y-86650000D01*
X98000000Y-86616666D01*
X98133333Y-86616666D01*
X98200000Y-86650000D01*
X98266666Y-86716666D01*
X98300000Y-86850000D01*
X98300000Y-87083333D01*
X98266666Y-87216666D01*
X98200000Y-87283333D01*
X98133333Y-87316666D01*
X98000000Y-87316666D01*
X98566666Y-86683333D02*
X98600000Y-86650000D01*
X98666666Y-86616666D01*
X98833333Y-86616666D01*
X98900000Y-86650000D01*
X98933333Y-86683333D01*
X98966666Y-86750000D01*
X98966666Y-86816666D01*
X98933333Y-86916666D01*
X98533333Y-87316666D01*
X98966666Y-87316666D01*
%TO.C,L1*%
X95316666Y-81954166D02*
X95316666Y-82287500D01*
X94616666Y-82287500D01*
X95316666Y-81354166D02*
X95316666Y-81754166D01*
X95316666Y-81554166D02*
X94616666Y-81554166D01*
X94716666Y-81620833D01*
X94783333Y-81687500D01*
X94816666Y-81754166D01*
%TO.C,J10*%
X100008333Y-99481666D02*
X100008333Y-99981666D01*
X99975000Y-100081666D01*
X99908333Y-100148333D01*
X99808333Y-100181666D01*
X99741666Y-100181666D01*
X100708333Y-100181666D02*
X100308333Y-100181666D01*
X100508333Y-100181666D02*
X100508333Y-99481666D01*
X100441666Y-99581666D01*
X100375000Y-99648333D01*
X100308333Y-99681666D01*
X101141666Y-99481666D02*
X101208333Y-99481666D01*
X101275000Y-99515000D01*
X101308333Y-99548333D01*
X101341666Y-99615000D01*
X101375000Y-99748333D01*
X101375000Y-99915000D01*
X101341666Y-100048333D01*
X101308333Y-100115000D01*
X101275000Y-100148333D01*
X101208333Y-100181666D01*
X101141666Y-100181666D01*
X101075000Y-100148333D01*
X101041666Y-100115000D01*
X101008333Y-100048333D01*
X100975000Y-99915000D01*
X100975000Y-99748333D01*
X101008333Y-99615000D01*
X101041666Y-99548333D01*
X101075000Y-99515000D01*
X101141666Y-99481666D01*
%TO.C,D8*%
X93816666Y-88916666D02*
X93116666Y-88916666D01*
X93116666Y-88750000D01*
X93150000Y-88650000D01*
X93216666Y-88583333D01*
X93283333Y-88550000D01*
X93416666Y-88516666D01*
X93516666Y-88516666D01*
X93650000Y-88550000D01*
X93716666Y-88583333D01*
X93783333Y-88650000D01*
X93816666Y-88750000D01*
X93816666Y-88916666D01*
X93416666Y-88116666D02*
X93383333Y-88183333D01*
X93350000Y-88216666D01*
X93283333Y-88250000D01*
X93250000Y-88250000D01*
X93183333Y-88216666D01*
X93150000Y-88183333D01*
X93116666Y-88116666D01*
X93116666Y-87983333D01*
X93150000Y-87916666D01*
X93183333Y-87883333D01*
X93250000Y-87850000D01*
X93283333Y-87850000D01*
X93350000Y-87883333D01*
X93383333Y-87916666D01*
X93416666Y-87983333D01*
X93416666Y-88116666D01*
X93450000Y-88183333D01*
X93483333Y-88216666D01*
X93550000Y-88250000D01*
X93683333Y-88250000D01*
X93750000Y-88216666D01*
X93783333Y-88183333D01*
X93816666Y-88116666D01*
X93816666Y-87983333D01*
X93783333Y-87916666D01*
X93750000Y-87883333D01*
X93683333Y-87850000D01*
X93550000Y-87850000D01*
X93483333Y-87883333D01*
X93450000Y-87916666D01*
X93416666Y-87983333D01*
%TO.C,D6*%
X127616666Y-101766666D02*
X126916666Y-101766666D01*
X126916666Y-101600000D01*
X126950000Y-101500000D01*
X127016666Y-101433333D01*
X127083333Y-101400000D01*
X127216666Y-101366666D01*
X127316666Y-101366666D01*
X127450000Y-101400000D01*
X127516666Y-101433333D01*
X127583333Y-101500000D01*
X127616666Y-101600000D01*
X127616666Y-101766666D01*
X126916666Y-100766666D02*
X126916666Y-100900000D01*
X126950000Y-100966666D01*
X126983333Y-101000000D01*
X127083333Y-101066666D01*
X127216666Y-101100000D01*
X127483333Y-101100000D01*
X127550000Y-101066666D01*
X127583333Y-101033333D01*
X127616666Y-100966666D01*
X127616666Y-100833333D01*
X127583333Y-100766666D01*
X127550000Y-100733333D01*
X127483333Y-100700000D01*
X127316666Y-100700000D01*
X127250000Y-100733333D01*
X127216666Y-100766666D01*
X127183333Y-100833333D01*
X127183333Y-100966666D01*
X127216666Y-101033333D01*
X127250000Y-101066666D01*
X127316666Y-101100000D01*
%TO.C,D7*%
X141633333Y-106891666D02*
X141633333Y-106191666D01*
X141800000Y-106191666D01*
X141900000Y-106225000D01*
X141966666Y-106291666D01*
X142000000Y-106358333D01*
X142033333Y-106491666D01*
X142033333Y-106591666D01*
X142000000Y-106725000D01*
X141966666Y-106791666D01*
X141900000Y-106858333D01*
X141800000Y-106891666D01*
X141633333Y-106891666D01*
X142266666Y-106191666D02*
X142733333Y-106191666D01*
X142433333Y-106891666D01*
%TO.C,D5*%
X139383333Y-106891666D02*
X139383333Y-106191666D01*
X139550000Y-106191666D01*
X139650000Y-106225000D01*
X139716666Y-106291666D01*
X139750000Y-106358333D01*
X139783333Y-106491666D01*
X139783333Y-106591666D01*
X139750000Y-106725000D01*
X139716666Y-106791666D01*
X139650000Y-106858333D01*
X139550000Y-106891666D01*
X139383333Y-106891666D01*
X140416666Y-106191666D02*
X140083333Y-106191666D01*
X140050000Y-106525000D01*
X140083333Y-106491666D01*
X140150000Y-106458333D01*
X140316666Y-106458333D01*
X140383333Y-106491666D01*
X140416666Y-106525000D01*
X140450000Y-106591666D01*
X140450000Y-106758333D01*
X140416666Y-106825000D01*
X140383333Y-106858333D01*
X140316666Y-106891666D01*
X140150000Y-106891666D01*
X140083333Y-106858333D01*
X140050000Y-106825000D01*
%TO.C,D4*%
X137233333Y-106891666D02*
X137233333Y-106191666D01*
X137400000Y-106191666D01*
X137500000Y-106225000D01*
X137566666Y-106291666D01*
X137600000Y-106358333D01*
X137633333Y-106491666D01*
X137633333Y-106591666D01*
X137600000Y-106725000D01*
X137566666Y-106791666D01*
X137500000Y-106858333D01*
X137400000Y-106891666D01*
X137233333Y-106891666D01*
X138233333Y-106425000D02*
X138233333Y-106891666D01*
X138066666Y-106158333D02*
X137900000Y-106658333D01*
X138333333Y-106658333D01*
%TO.C,D3*%
X135133333Y-106954166D02*
X135133333Y-106254166D01*
X135300000Y-106254166D01*
X135400000Y-106287500D01*
X135466666Y-106354166D01*
X135500000Y-106420833D01*
X135533333Y-106554166D01*
X135533333Y-106654166D01*
X135500000Y-106787500D01*
X135466666Y-106854166D01*
X135400000Y-106920833D01*
X135300000Y-106954166D01*
X135133333Y-106954166D01*
X135766666Y-106254166D02*
X136200000Y-106254166D01*
X135966666Y-106520833D01*
X136066666Y-106520833D01*
X136133333Y-106554166D01*
X136166666Y-106587500D01*
X136200000Y-106654166D01*
X136200000Y-106820833D01*
X136166666Y-106887500D01*
X136133333Y-106920833D01*
X136066666Y-106954166D01*
X135866666Y-106954166D01*
X135800000Y-106920833D01*
X135766666Y-106887500D01*
%TO.C,D2*%
X98783333Y-63416666D02*
X98783333Y-62716666D01*
X98950000Y-62716666D01*
X99050000Y-62750000D01*
X99116666Y-62816666D01*
X99150000Y-62883333D01*
X99183333Y-63016666D01*
X99183333Y-63116666D01*
X99150000Y-63250000D01*
X99116666Y-63316666D01*
X99050000Y-63383333D01*
X98950000Y-63416666D01*
X98783333Y-63416666D01*
X99450000Y-62783333D02*
X99483333Y-62750000D01*
X99550000Y-62716666D01*
X99716666Y-62716666D01*
X99783333Y-62750000D01*
X99816666Y-62783333D01*
X99850000Y-62850000D01*
X99850000Y-62916666D01*
X99816666Y-63016666D01*
X99416666Y-63416666D01*
X99850000Y-63416666D01*
%TO.C,D1*%
X100883333Y-63416666D02*
X100883333Y-62716666D01*
X101050000Y-62716666D01*
X101150000Y-62750000D01*
X101216666Y-62816666D01*
X101250000Y-62883333D01*
X101283333Y-63016666D01*
X101283333Y-63116666D01*
X101250000Y-63250000D01*
X101216666Y-63316666D01*
X101150000Y-63383333D01*
X101050000Y-63416666D01*
X100883333Y-63416666D01*
X101950000Y-63416666D02*
X101550000Y-63416666D01*
X101750000Y-63416666D02*
X101750000Y-62716666D01*
X101683333Y-62816666D01*
X101616666Y-62883333D01*
X101550000Y-62916666D01*
%TO.C,C8*%
X105550000Y-86016666D02*
X105583333Y-86050000D01*
X105616666Y-86150000D01*
X105616666Y-86216666D01*
X105583333Y-86316666D01*
X105516666Y-86383333D01*
X105450000Y-86416666D01*
X105316666Y-86450000D01*
X105216666Y-86450000D01*
X105083333Y-86416666D01*
X105016666Y-86383333D01*
X104950000Y-86316666D01*
X104916666Y-86216666D01*
X104916666Y-86150000D01*
X104950000Y-86050000D01*
X104983333Y-86016666D01*
X105216666Y-85616666D02*
X105183333Y-85683333D01*
X105150000Y-85716666D01*
X105083333Y-85750000D01*
X105050000Y-85750000D01*
X104983333Y-85716666D01*
X104950000Y-85683333D01*
X104916666Y-85616666D01*
X104916666Y-85483333D01*
X104950000Y-85416666D01*
X104983333Y-85383333D01*
X105050000Y-85350000D01*
X105083333Y-85350000D01*
X105150000Y-85383333D01*
X105183333Y-85416666D01*
X105216666Y-85483333D01*
X105216666Y-85616666D01*
X105250000Y-85683333D01*
X105283333Y-85716666D01*
X105350000Y-85750000D01*
X105483333Y-85750000D01*
X105550000Y-85716666D01*
X105583333Y-85683333D01*
X105616666Y-85616666D01*
X105616666Y-85483333D01*
X105583333Y-85416666D01*
X105550000Y-85383333D01*
X105483333Y-85350000D01*
X105350000Y-85350000D01*
X105283333Y-85383333D01*
X105250000Y-85416666D01*
X105216666Y-85483333D01*
%TO.C,C7*%
X126150000Y-90491666D02*
X126183333Y-90525000D01*
X126216666Y-90625000D01*
X126216666Y-90691666D01*
X126183333Y-90791666D01*
X126116666Y-90858333D01*
X126050000Y-90891666D01*
X125916666Y-90925000D01*
X125816666Y-90925000D01*
X125683333Y-90891666D01*
X125616666Y-90858333D01*
X125550000Y-90791666D01*
X125516666Y-90691666D01*
X125516666Y-90625000D01*
X125550000Y-90525000D01*
X125583333Y-90491666D01*
X125516666Y-90258333D02*
X125516666Y-89791666D01*
X126216666Y-90091666D01*
%TO.C,C6*%
X95033333Y-86550000D02*
X95000000Y-86583333D01*
X94900000Y-86616666D01*
X94833333Y-86616666D01*
X94733333Y-86583333D01*
X94666666Y-86516666D01*
X94633333Y-86450000D01*
X94600000Y-86316666D01*
X94600000Y-86216666D01*
X94633333Y-86083333D01*
X94666666Y-86016666D01*
X94733333Y-85950000D01*
X94833333Y-85916666D01*
X94900000Y-85916666D01*
X95000000Y-85950000D01*
X95033333Y-85983333D01*
X95633333Y-85916666D02*
X95500000Y-85916666D01*
X95433333Y-85950000D01*
X95400000Y-85983333D01*
X95333333Y-86083333D01*
X95300000Y-86216666D01*
X95300000Y-86483333D01*
X95333333Y-86550000D01*
X95366666Y-86583333D01*
X95433333Y-86616666D01*
X95566666Y-86616666D01*
X95633333Y-86583333D01*
X95666666Y-86550000D01*
X95700000Y-86483333D01*
X95700000Y-86316666D01*
X95666666Y-86250000D01*
X95633333Y-86216666D01*
X95566666Y-86183333D01*
X95433333Y-86183333D01*
X95366666Y-86216666D01*
X95333333Y-86250000D01*
X95300000Y-86316666D01*
%TO.C,C5*%
X124400000Y-95191666D02*
X124433333Y-95225000D01*
X124466666Y-95325000D01*
X124466666Y-95391666D01*
X124433333Y-95491666D01*
X124366666Y-95558333D01*
X124300000Y-95591666D01*
X124166666Y-95625000D01*
X124066666Y-95625000D01*
X123933333Y-95591666D01*
X123866666Y-95558333D01*
X123800000Y-95491666D01*
X123766666Y-95391666D01*
X123766666Y-95325000D01*
X123800000Y-95225000D01*
X123833333Y-95191666D01*
X123766666Y-94558333D02*
X123766666Y-94891666D01*
X124100000Y-94925000D01*
X124066666Y-94891666D01*
X124033333Y-94825000D01*
X124033333Y-94658333D01*
X124066666Y-94591666D01*
X124100000Y-94558333D01*
X124166666Y-94525000D01*
X124333333Y-94525000D01*
X124400000Y-94558333D01*
X124433333Y-94591666D01*
X124466666Y-94658333D01*
X124466666Y-94825000D01*
X124433333Y-94891666D01*
X124400000Y-94925000D01*
%TO.C,C3*%
X129083333Y-99250000D02*
X129050000Y-99283333D01*
X128950000Y-99316666D01*
X128883333Y-99316666D01*
X128783333Y-99283333D01*
X128716666Y-99216666D01*
X128683333Y-99150000D01*
X128650000Y-99016666D01*
X128650000Y-98916666D01*
X128683333Y-98783333D01*
X128716666Y-98716666D01*
X128783333Y-98650000D01*
X128883333Y-98616666D01*
X128950000Y-98616666D01*
X129050000Y-98650000D01*
X129083333Y-98683333D01*
X129316666Y-98616666D02*
X129750000Y-98616666D01*
X129516666Y-98883333D01*
X129616666Y-98883333D01*
X129683333Y-98916666D01*
X129716666Y-98950000D01*
X129750000Y-99016666D01*
X129750000Y-99183333D01*
X129716666Y-99250000D01*
X129683333Y-99283333D01*
X129616666Y-99316666D01*
X129416666Y-99316666D01*
X129350000Y-99283333D01*
X129316666Y-99250000D01*
%TO.C,C2*%
X93608333Y-71750000D02*
X93575000Y-71783333D01*
X93475000Y-71816666D01*
X93408333Y-71816666D01*
X93308333Y-71783333D01*
X93241666Y-71716666D01*
X93208333Y-71650000D01*
X93175000Y-71516666D01*
X93175000Y-71416666D01*
X93208333Y-71283333D01*
X93241666Y-71216666D01*
X93308333Y-71150000D01*
X93408333Y-71116666D01*
X93475000Y-71116666D01*
X93575000Y-71150000D01*
X93608333Y-71183333D01*
X93875000Y-71183333D02*
X93908333Y-71150000D01*
X93975000Y-71116666D01*
X94141666Y-71116666D01*
X94208333Y-71150000D01*
X94241666Y-71183333D01*
X94275000Y-71250000D01*
X94275000Y-71316666D01*
X94241666Y-71416666D01*
X93841666Y-71816666D01*
X94275000Y-71816666D01*
%TO.C,C1*%
X90770000Y-72866666D02*
X90803333Y-72900000D01*
X90836666Y-73000000D01*
X90836666Y-73066666D01*
X90803333Y-73166666D01*
X90736666Y-73233333D01*
X90670000Y-73266666D01*
X90536666Y-73300000D01*
X90436666Y-73300000D01*
X90303333Y-73266666D01*
X90236666Y-73233333D01*
X90170000Y-73166666D01*
X90136666Y-73066666D01*
X90136666Y-73000000D01*
X90170000Y-72900000D01*
X90203333Y-72866666D01*
X90836666Y-72200000D02*
X90836666Y-72600000D01*
X90836666Y-72400000D02*
X90136666Y-72400000D01*
X90236666Y-72466666D01*
X90303333Y-72533333D01*
X90336666Y-72600000D01*
%TD*%
M02*
