%TF.GenerationSoftware,KiCad,Pcbnew,(5.1.12)-1*%
%TF.CreationDate,2021-12-17T12:12:49+01:00*%
%TF.ProjectId,ESP32-BOARD-V2.0,45535033-322d-4424-9f41-52442d56322e,rev?*%
%TF.SameCoordinates,Original*%
%TF.FileFunction,Soldermask,Bot*%
%TF.FilePolarity,Negative*%
%FSLAX46Y46*%
G04 Gerber Fmt 4.6, Leading zero omitted, Abs format (unit mm)*
G04 Created by KiCad (PCBNEW (5.1.12)-1) date 2021-12-17 12:12:49*
%MOMM*%
%LPD*%
G01*
G04 APERTURE LIST*
%ADD10O,2.000000X1.700000*%
%ADD11O,1.700000X1.700000*%
%ADD12R,1.700000X1.700000*%
%ADD13C,0.100000*%
%ADD14C,4.400000*%
%ADD15C,0.762000*%
%ADD16C,0.900000*%
%ADD17C,0.650000*%
%ADD18O,1.050000X2.100000*%
%ADD19O,1.000000X2.000000*%
G04 APERTURE END LIST*
D10*
%TO.C,J6*%
X94250000Y-98450000D03*
G36*
G01*
X93500000Y-95100000D02*
X95000000Y-95100000D01*
G75*
G02*
X95250000Y-95350000I0J-250000D01*
G01*
X95250000Y-96550000D01*
G75*
G02*
X95000000Y-96800000I-250000J0D01*
G01*
X93500000Y-96800000D01*
G75*
G02*
X93250000Y-96550000I0J250000D01*
G01*
X93250000Y-95350000D01*
G75*
G02*
X93500000Y-95100000I250000J0D01*
G01*
G37*
%TD*%
D11*
%TO.C,J2*%
X116720000Y-65350000D03*
X114180000Y-65350000D03*
X111640000Y-65350000D03*
D12*
X109100000Y-65350000D03*
%TD*%
D13*
%TO.C,JP4*%
G36*
X110750000Y-78850602D02*
G01*
X110774534Y-78850602D01*
X110823365Y-78855412D01*
X110871490Y-78864984D01*
X110918445Y-78879228D01*
X110963778Y-78898005D01*
X111007051Y-78921136D01*
X111047850Y-78948396D01*
X111085779Y-78979524D01*
X111120476Y-79014221D01*
X111151604Y-79052150D01*
X111178864Y-79092949D01*
X111201995Y-79136222D01*
X111220772Y-79181555D01*
X111235016Y-79228510D01*
X111244588Y-79276635D01*
X111249398Y-79325466D01*
X111249398Y-79350000D01*
X111250000Y-79350000D01*
X111250000Y-79850000D01*
X111249398Y-79850000D01*
X111249398Y-79874534D01*
X111244588Y-79923365D01*
X111235016Y-79971490D01*
X111220772Y-80018445D01*
X111201995Y-80063778D01*
X111178864Y-80107051D01*
X111151604Y-80147850D01*
X111120476Y-80185779D01*
X111085779Y-80220476D01*
X111047850Y-80251604D01*
X111007051Y-80278864D01*
X110963778Y-80301995D01*
X110918445Y-80320772D01*
X110871490Y-80335016D01*
X110823365Y-80344588D01*
X110774534Y-80349398D01*
X110750000Y-80349398D01*
X110750000Y-80350000D01*
X110250000Y-80350000D01*
X110250000Y-78850000D01*
X110750000Y-78850000D01*
X110750000Y-78850602D01*
G37*
G36*
X109950000Y-80350000D02*
G01*
X109450000Y-80350000D01*
X109450000Y-80349398D01*
X109425466Y-80349398D01*
X109376635Y-80344588D01*
X109328510Y-80335016D01*
X109281555Y-80320772D01*
X109236222Y-80301995D01*
X109192949Y-80278864D01*
X109152150Y-80251604D01*
X109114221Y-80220476D01*
X109079524Y-80185779D01*
X109048396Y-80147850D01*
X109021136Y-80107051D01*
X108998005Y-80063778D01*
X108979228Y-80018445D01*
X108964984Y-79971490D01*
X108955412Y-79923365D01*
X108950602Y-79874534D01*
X108950602Y-79850000D01*
X108950000Y-79850000D01*
X108950000Y-79350000D01*
X108950602Y-79350000D01*
X108950602Y-79325466D01*
X108955412Y-79276635D01*
X108964984Y-79228510D01*
X108979228Y-79181555D01*
X108998005Y-79136222D01*
X109021136Y-79092949D01*
X109048396Y-79052150D01*
X109079524Y-79014221D01*
X109114221Y-78979524D01*
X109152150Y-78948396D01*
X109192949Y-78921136D01*
X109236222Y-78898005D01*
X109281555Y-78879228D01*
X109328510Y-78864984D01*
X109376635Y-78855412D01*
X109425466Y-78850602D01*
X109450000Y-78850602D01*
X109450000Y-78850000D01*
X109950000Y-78850000D01*
X109950000Y-80350000D01*
G37*
%TD*%
%TO.C,JP3*%
G36*
X110750000Y-76150602D02*
G01*
X110774534Y-76150602D01*
X110823365Y-76155412D01*
X110871490Y-76164984D01*
X110918445Y-76179228D01*
X110963778Y-76198005D01*
X111007051Y-76221136D01*
X111047850Y-76248396D01*
X111085779Y-76279524D01*
X111120476Y-76314221D01*
X111151604Y-76352150D01*
X111178864Y-76392949D01*
X111201995Y-76436222D01*
X111220772Y-76481555D01*
X111235016Y-76528510D01*
X111244588Y-76576635D01*
X111249398Y-76625466D01*
X111249398Y-76650000D01*
X111250000Y-76650000D01*
X111250000Y-77150000D01*
X111249398Y-77150000D01*
X111249398Y-77174534D01*
X111244588Y-77223365D01*
X111235016Y-77271490D01*
X111220772Y-77318445D01*
X111201995Y-77363778D01*
X111178864Y-77407051D01*
X111151604Y-77447850D01*
X111120476Y-77485779D01*
X111085779Y-77520476D01*
X111047850Y-77551604D01*
X111007051Y-77578864D01*
X110963778Y-77601995D01*
X110918445Y-77620772D01*
X110871490Y-77635016D01*
X110823365Y-77644588D01*
X110774534Y-77649398D01*
X110750000Y-77649398D01*
X110750000Y-77650000D01*
X110250000Y-77650000D01*
X110250000Y-76150000D01*
X110750000Y-76150000D01*
X110750000Y-76150602D01*
G37*
G36*
X109950000Y-77650000D02*
G01*
X109450000Y-77650000D01*
X109450000Y-77649398D01*
X109425466Y-77649398D01*
X109376635Y-77644588D01*
X109328510Y-77635016D01*
X109281555Y-77620772D01*
X109236222Y-77601995D01*
X109192949Y-77578864D01*
X109152150Y-77551604D01*
X109114221Y-77520476D01*
X109079524Y-77485779D01*
X109048396Y-77447850D01*
X109021136Y-77407051D01*
X108998005Y-77363778D01*
X108979228Y-77318445D01*
X108964984Y-77271490D01*
X108955412Y-77223365D01*
X108950602Y-77174534D01*
X108950602Y-77150000D01*
X108950000Y-77150000D01*
X108950000Y-76650000D01*
X108950602Y-76650000D01*
X108950602Y-76625466D01*
X108955412Y-76576635D01*
X108964984Y-76528510D01*
X108979228Y-76481555D01*
X108998005Y-76436222D01*
X109021136Y-76392949D01*
X109048396Y-76352150D01*
X109079524Y-76314221D01*
X109114221Y-76279524D01*
X109152150Y-76248396D01*
X109192949Y-76221136D01*
X109236222Y-76198005D01*
X109281555Y-76179228D01*
X109328510Y-76164984D01*
X109376635Y-76155412D01*
X109425466Y-76150602D01*
X109450000Y-76150602D01*
X109450000Y-76150000D01*
X109950000Y-76150000D01*
X109950000Y-77650000D01*
G37*
%TD*%
%TO.C,JP2*%
G36*
X110750000Y-71950602D02*
G01*
X110774534Y-71950602D01*
X110823365Y-71955412D01*
X110871490Y-71964984D01*
X110918445Y-71979228D01*
X110963778Y-71998005D01*
X111007051Y-72021136D01*
X111047850Y-72048396D01*
X111085779Y-72079524D01*
X111120476Y-72114221D01*
X111151604Y-72152150D01*
X111178864Y-72192949D01*
X111201995Y-72236222D01*
X111220772Y-72281555D01*
X111235016Y-72328510D01*
X111244588Y-72376635D01*
X111249398Y-72425466D01*
X111249398Y-72450000D01*
X111250000Y-72450000D01*
X111250000Y-72950000D01*
X111249398Y-72950000D01*
X111249398Y-72974534D01*
X111244588Y-73023365D01*
X111235016Y-73071490D01*
X111220772Y-73118445D01*
X111201995Y-73163778D01*
X111178864Y-73207051D01*
X111151604Y-73247850D01*
X111120476Y-73285779D01*
X111085779Y-73320476D01*
X111047850Y-73351604D01*
X111007051Y-73378864D01*
X110963778Y-73401995D01*
X110918445Y-73420772D01*
X110871490Y-73435016D01*
X110823365Y-73444588D01*
X110774534Y-73449398D01*
X110750000Y-73449398D01*
X110750000Y-73450000D01*
X110250000Y-73450000D01*
X110250000Y-71950000D01*
X110750000Y-71950000D01*
X110750000Y-71950602D01*
G37*
G36*
X109950000Y-73450000D02*
G01*
X109450000Y-73450000D01*
X109450000Y-73449398D01*
X109425466Y-73449398D01*
X109376635Y-73444588D01*
X109328510Y-73435016D01*
X109281555Y-73420772D01*
X109236222Y-73401995D01*
X109192949Y-73378864D01*
X109152150Y-73351604D01*
X109114221Y-73320476D01*
X109079524Y-73285779D01*
X109048396Y-73247850D01*
X109021136Y-73207051D01*
X108998005Y-73163778D01*
X108979228Y-73118445D01*
X108964984Y-73071490D01*
X108955412Y-73023365D01*
X108950602Y-72974534D01*
X108950602Y-72950000D01*
X108950000Y-72950000D01*
X108950000Y-72450000D01*
X108950602Y-72450000D01*
X108950602Y-72425466D01*
X108955412Y-72376635D01*
X108964984Y-72328510D01*
X108979228Y-72281555D01*
X108998005Y-72236222D01*
X109021136Y-72192949D01*
X109048396Y-72152150D01*
X109079524Y-72114221D01*
X109114221Y-72079524D01*
X109152150Y-72048396D01*
X109192949Y-72021136D01*
X109236222Y-71998005D01*
X109281555Y-71979228D01*
X109328510Y-71964984D01*
X109376635Y-71955412D01*
X109425466Y-71950602D01*
X109450000Y-71950602D01*
X109450000Y-71950000D01*
X109950000Y-71950000D01*
X109950000Y-73450000D01*
G37*
%TD*%
%TO.C,JP1*%
G36*
X110750000Y-69250602D02*
G01*
X110774534Y-69250602D01*
X110823365Y-69255412D01*
X110871490Y-69264984D01*
X110918445Y-69279228D01*
X110963778Y-69298005D01*
X111007051Y-69321136D01*
X111047850Y-69348396D01*
X111085779Y-69379524D01*
X111120476Y-69414221D01*
X111151604Y-69452150D01*
X111178864Y-69492949D01*
X111201995Y-69536222D01*
X111220772Y-69581555D01*
X111235016Y-69628510D01*
X111244588Y-69676635D01*
X111249398Y-69725466D01*
X111249398Y-69750000D01*
X111250000Y-69750000D01*
X111250000Y-70250000D01*
X111249398Y-70250000D01*
X111249398Y-70274534D01*
X111244588Y-70323365D01*
X111235016Y-70371490D01*
X111220772Y-70418445D01*
X111201995Y-70463778D01*
X111178864Y-70507051D01*
X111151604Y-70547850D01*
X111120476Y-70585779D01*
X111085779Y-70620476D01*
X111047850Y-70651604D01*
X111007051Y-70678864D01*
X110963778Y-70701995D01*
X110918445Y-70720772D01*
X110871490Y-70735016D01*
X110823365Y-70744588D01*
X110774534Y-70749398D01*
X110750000Y-70749398D01*
X110750000Y-70750000D01*
X110250000Y-70750000D01*
X110250000Y-69250000D01*
X110750000Y-69250000D01*
X110750000Y-69250602D01*
G37*
G36*
X109950000Y-70750000D02*
G01*
X109450000Y-70750000D01*
X109450000Y-70749398D01*
X109425466Y-70749398D01*
X109376635Y-70744588D01*
X109328510Y-70735016D01*
X109281555Y-70720772D01*
X109236222Y-70701995D01*
X109192949Y-70678864D01*
X109152150Y-70651604D01*
X109114221Y-70620476D01*
X109079524Y-70585779D01*
X109048396Y-70547850D01*
X109021136Y-70507051D01*
X108998005Y-70463778D01*
X108979228Y-70418445D01*
X108964984Y-70371490D01*
X108955412Y-70323365D01*
X108950602Y-70274534D01*
X108950602Y-70250000D01*
X108950000Y-70250000D01*
X108950000Y-69750000D01*
X108950602Y-69750000D01*
X108950602Y-69725466D01*
X108955412Y-69676635D01*
X108964984Y-69628510D01*
X108979228Y-69581555D01*
X108998005Y-69536222D01*
X109021136Y-69492949D01*
X109048396Y-69452150D01*
X109079524Y-69414221D01*
X109114221Y-69379524D01*
X109152150Y-69348396D01*
X109192949Y-69321136D01*
X109236222Y-69298005D01*
X109281555Y-69279228D01*
X109328510Y-69264984D01*
X109376635Y-69255412D01*
X109425466Y-69250602D01*
X109450000Y-69250602D01*
X109450000Y-69250000D01*
X109950000Y-69250000D01*
X109950000Y-70750000D01*
G37*
%TD*%
D11*
%TO.C,J5*%
X158100000Y-99780000D03*
X158100000Y-97240000D03*
D12*
X158100000Y-94700000D03*
%TD*%
D11*
%TO.C,J8*%
X151220000Y-68700000D03*
X148680000Y-68700000D03*
X146140000Y-68700000D03*
D12*
X143600000Y-68700000D03*
%TD*%
D11*
%TO.C,J4*%
X158100000Y-83480000D03*
X158100000Y-80940000D03*
D12*
X158100000Y-78400000D03*
%TD*%
D11*
%TO.C,J3*%
X158100000Y-91680000D03*
X158100000Y-89140000D03*
D12*
X158100000Y-86600000D03*
%TD*%
D11*
%TO.C,J1*%
X158100000Y-75280000D03*
X158100000Y-72740000D03*
D12*
X158100000Y-70200000D03*
%TD*%
D14*
%TO.C,H4*%
X157200000Y-65800000D03*
%TD*%
%TO.C,H3*%
X156800000Y-104800000D03*
%TD*%
%TO.C,H2*%
X92900000Y-105100000D03*
%TD*%
%TO.C,H1*%
X92800000Y-65800000D03*
%TD*%
D11*
%TO.C,J7*%
X151220000Y-65500000D03*
X148680000Y-65500000D03*
X146140000Y-65500000D03*
D12*
X143600000Y-65500000D03*
%TD*%
D15*
%TO.C,U2*%
X131067500Y-74425000D03*
X129232500Y-74425000D03*
X131067500Y-70755000D03*
X129232500Y-70755000D03*
X131067500Y-72590000D03*
X129232500Y-72590000D03*
X131985000Y-73507500D03*
X130150000Y-73507500D03*
X128315000Y-73507500D03*
X131985000Y-71672500D03*
X128315000Y-71672500D03*
X130150000Y-71672500D03*
%TD*%
D16*
%TO.C,SW3*%
X114700000Y-105830000D03*
X111700000Y-105830000D03*
%TD*%
D17*
%TO.C,J10*%
X99610000Y-102520000D03*
X105390000Y-102520000D03*
D18*
X106820000Y-102020000D03*
X98180000Y-102020000D03*
D19*
X106820000Y-106200000D03*
X98180000Y-106200000D03*
%TD*%
M02*
