M48
; DRILL file {KiCad (5.1.12)-1} date 12/17/21 12:12:54
; FORMAT={-:-/ absolute / inch / decimal}
; #@! TF.CreationDate,2021-12-17T12:12:54+01:00
; #@! TF.GenerationSoftware,Kicad,Pcbnew,(5.1.12)-1
; #@! TF.FileFunction,Plated,1,4,PTH
FMAT,2
INCH
T1C0.0100
T2C0.0118
T3C0.0157
T4C0.0197
T5C0.0236
T6C0.0394
T7C0.0866
%
G90
G05
T1
X5.0518Y-2.8218
X5.0518Y-2.894
X5.0879Y-2.7856
X5.0879Y-2.8579
X5.0879Y-2.9301
X5.124Y-2.8218
X5.124Y-2.894
X5.1601Y-2.7856
X5.1601Y-2.8579
X5.1601Y-2.9301
X5.1963Y-2.8218
X5.1963Y-2.894
T2
X3.6614Y-2.9961
X3.676Y-3.0819
X3.686Y-3.0157
X3.7657Y-2.9055
X3.7657Y-2.939
X3.7657Y-2.9724
X3.7953Y-3.3937
X3.7992Y-3.4764
X3.874Y-3.498
X3.876Y-3.4567
X3.9035Y-3.3169
X3.9094Y-2.7776
X3.9094Y-3.1299
X3.9114Y-3.6535
X3.9331Y-3.937
X3.935Y-3.1299
X3.9429Y-3.4764
X3.9606Y-3.1299
X3.9882Y-3.1299
X3.9882Y-3.2303
X3.9882Y-3.2657
X3.9902Y-3.1988
X3.9921Y-2.7795
X3.998Y-2.8622
X3.999Y-4.0669
X4.002Y-3.5886
X4.0138Y-3.1299
X4.0325Y-4.0669
X4.0394Y-3.1299
X4.0531Y-3.8701
X4.061Y-3.502
X4.0669Y-3.1299
X4.0768Y-3.8937
X4.0866Y-3.1614
X4.0866Y-3.3839
X4.0965Y-3.1299
X4.0984Y-3.2323
X4.122Y-3.1299
X4.1299Y-3.937
X4.1457Y-3.3406
X4.1496Y-3.1299
X4.1752Y-3.1299
X4.1831Y-2.9075
X4.189Y-2.8287
X4.2008Y-3.1299
X4.2283Y-3.1299
X4.2323Y-3.2756
X4.252Y-2.7579
X4.2559Y-3.0768
X4.2559Y-3.1299
X4.2638Y-3.0256
X4.3701Y-3.9862
X4.4016Y-4.0984
X4.4843Y-3.6778
X4.4844Y-3.6022
X4.4862Y-4.0335
X4.5197Y-3.4291
X4.5354Y-3.5039
X4.5472Y-4.0177
X4.5827Y-2.9193
X4.624Y-3.9409
X4.6319Y-3.7835
X4.6831Y-3.7539
X4.689Y-2.8425
X4.7087Y-4.0866
X4.7146Y-2.9291
X4.7224Y-3.8898
X4.7343Y-2.9646
X4.748Y-3.2333
X4.7677Y-3.5886
X4.7992Y-3.378
X4.8071Y-3.5886
X4.8504Y-3.7874
X4.8543Y-3.9646
X4.8642Y-3.8169
X4.874Y-3.5197
X4.8937Y-2.6614
X4.8937Y-3.9646
X4.8937Y-4.0807
X4.9173Y-2.7854
X4.935Y-3.378
X4.936Y-3.312
X4.9528Y-2.8051
X4.9567Y-3.5906
X4.9567Y-3.7283
X5.0246Y-3.8917
X5.0315Y-3.5394
X5.0354Y-3.5866
X5.0463Y-3.1299
X5.0472Y-3.0974
X5.0512Y-3.0659
X5.0531Y-3.0335
X5.1004Y-3.8937
X5.1083Y-4.1909
X5.124Y-3.5394
X5.1319Y-3.374
X5.1919Y-4.1201
X5.2008Y-3.8563
X5.2126Y-3.5236
X5.2165Y-3.7441
X5.2402Y-3.4528
X5.2402Y-3.4961
X5.2451Y-3.4124
X5.2795Y-3.8583
X5.3031Y-2.9094
X5.3031Y-3.7441
X5.3091Y-2.9606
X5.311Y-2.811
X5.3228Y-3.8583
X5.3274Y-3.899
X5.3386Y-3.0157
X5.3583Y-2.6063
X5.3898Y-3.7441
X5.3937Y-3.8425
X5.4134Y-3.0787
X5.4134Y-3.1171
X5.4134Y-3.3543
X5.4134Y-3.8957
X5.4154Y-3.1585
X5.4449Y-3.2785
X5.4488Y-3.3228
X5.4685Y-3.7972
X5.4724Y-3.5335
X5.4724Y-3.7205
X5.4764Y-3.6299
X5.5098Y-3.8917
X5.5512Y-3.8819
X5.5787Y-3.2756
X5.5846Y-3.3898
X5.6004Y-3.8917
X5.6102Y-3.2244
X5.6831Y-3.187
X5.685Y-3.3996
X5.7559Y-3.1654
X5.7559Y-3.3819
X5.8799Y-3.1693
X5.8819Y-3.3819
X5.8839Y-3.9626
X5.9094Y-3.5512
T3
X3.6752Y-2.8248
X3.7165Y-2.8012
X3.7277Y-2.7479
X4.3602Y-2.9154
X4.3602Y-2.9724
X4.3602Y-3.1949
T4
X3.8701Y-2.8091
X4.5118Y-2.6929
X4.5197Y-2.7598
X4.748Y-2.5413
X4.9134Y-2.6063
X5.4154Y-2.5591
T6
X3.7106Y-3.7776
X3.7106Y-3.876
X4.2953Y-2.5728
X4.3953Y-2.5728
X4.4953Y-2.5728
X4.5953Y-2.5728
X5.6535Y-2.5787
X5.6535Y-2.7047
X5.7535Y-2.5787
X5.7535Y-2.7047
X5.8535Y-2.5787
X5.8535Y-2.7047
X5.9535Y-2.5787
X5.9535Y-2.7047
X6.2244Y-2.7638
X6.2244Y-2.8638
X6.2244Y-2.9638
X6.2244Y-3.0866
X6.2244Y-3.1866
X6.2244Y-3.2866
X6.2244Y-3.4094
X6.2244Y-3.5094
X6.2244Y-3.6094
X6.2244Y-3.7283
X6.2244Y-3.8283
X6.2244Y-3.9283
T7
X3.6535Y-2.5906
X3.6575Y-4.1378
X6.1732Y-4.126
X6.189Y-2.5906
T5
G00X3.8654Y-3.9949
M15
G01X3.8654Y-4.0382
M16
G05
G00X3.8654Y-4.1654
M15
G01X3.8654Y-4.1969
M16
G05
G00X4.2055Y-3.9949
M15
G01X4.2055Y-4.0382
M16
G05
G00X4.2055Y-4.1654
M15
G01X4.2055Y-4.1969
M16
G05
T0
M30
